<svg version="1.1" id="Layer_1" xmlns="http://www.w3.org/2000/svg" xmlns:xlink="http://www.w3.org/1999/xlink" x="0px" y="0px"
	 width="100%" viewBox="0 0 335 335" enable-background="new 0 0 335 335" xml:space="preserve">
<path fill="#FFFEFE" opacity="1.000000" stroke="none" 
	d="
M336.000000,116.000000 
	C336.000000,189.639374 336.000000,262.778748 336.000000,335.959045 
	C224.402298,335.959045 112.804581,335.959045 1.103432,335.959045 
	C1.103432,224.444031 1.103432,112.887939 1.103432,1.165921 
	C112.666466,1.165921 224.333206,1.165921 336.000000,1.165921 
	C336.000000,39.195332 336.000000,77.347664 336.000000,116.000000 
M309.929291,145.499863 
	C309.887573,145.336975 309.845886,145.174072 309.967163,144.162155 
	C309.911530,142.438293 309.855927,140.714432 309.944366,138.064514 
	C309.976105,109.278366 310.016846,80.492210 310.013153,51.706066 
	C310.012970,50.255852 309.628387,48.805687 309.429626,46.594776 
	C309.017181,45.757427 308.462799,44.960102 308.213684,44.076698 
	C304.799866,31.969332 295.832916,25.051573 282.858978,24.153400 
	C271.571564,24.096296 260.284149,24.039192 248.525223,23.689989 
	C248.348923,23.745663 248.172623,23.801338 247.087051,23.643404 
	C242.723663,23.731808 238.360275,23.820211 233.087341,23.665810 
	C227.390991,23.751274 221.694656,23.836739 215.092896,23.674606 
	C210.390610,23.745371 205.688309,23.816135 200.137115,23.636063 
	C198.080627,23.716579 196.024155,23.797094 193.056992,23.660151 
	C187.723862,23.723372 182.390747,23.786592 176.324646,23.482208 
	C130.832306,23.546068 85.339943,23.640923 39.847641,23.616293 
	C36.116241,23.614273 34.983879,24.934536 34.987625,28.596228 
	C35.069790,108.923805 34.993484,189.251648 35.216644,269.578705 
	C35.229469,274.196045 36.774014,279.197174 38.912472,283.346191 
	C44.795357,294.760071 55.007122,299.032043 67.458572,299.027283 
	C146.119705,298.997314 224.780853,299.013763 303.441986,299.013580 
	C304.441864,299.013580 305.446228,298.930206 306.440704,298.998932 
	C308.994812,299.175354 309.993622,298.065430 309.982300,295.480560 
	C309.866364,268.987946 309.820862,242.495010 309.916718,215.147400 
	C309.863770,213.412979 309.810822,211.678574 309.927673,209.029358 
	C309.869202,202.704941 309.810730,196.380508 309.906097,189.215515 
	C309.858582,187.795792 309.811096,186.376068 309.942200,184.125687 
	C309.690186,182.223495 309.438171,180.321304 309.740479,177.945236 
	C309.752411,176.993454 309.764343,176.041656 309.951965,174.514191 
	C309.893890,173.317856 309.835785,172.121536 309.883698,170.275314 
	C309.648254,169.707626 309.412811,169.139954 309.821716,167.970444 
	C309.802948,165.640915 309.784180,163.311371 309.907135,160.101425 
	C309.861115,157.722626 309.815125,155.343811 309.955566,152.109299 
	C309.904633,150.068939 309.853729,148.028580 309.929291,145.499863 
z"/>
<path fill="#FE4B4B" opacity="1.000000" stroke="none" 
	d="
M309.755676,216.002167 
	C309.820862,242.495010 309.866364,268.987946 309.982300,295.480560 
	C309.993622,298.065430 308.994812,299.175354 306.440704,298.998932 
	C305.446228,298.930206 304.441864,299.013580 303.441986,299.013580 
	C224.780853,299.013763 146.119705,298.997314 67.458572,299.027283 
	C55.007122,299.032043 44.795357,294.760071 38.912472,283.346191 
	C36.774014,279.197174 35.229469,274.196045 35.216644,269.578705 
	C34.993484,189.251648 35.069790,108.923805 34.987625,28.596228 
	C34.983879,24.934536 36.116241,23.614273 39.847641,23.616293 
	C85.339943,23.640923 130.832306,23.546068 176.531265,23.937706 
	C176.157776,24.595144 175.577667,24.797085 174.529053,24.996414 
	C164.374100,24.997423 154.687668,25.001045 144.533157,25.002520 
	C138.377136,25.002254 132.689178,25.004137 126.540466,25.003887 
	C122.387283,25.003292 118.694862,25.004827 114.533630,25.004589 
	C109.901611,25.002359 105.700554,25.359011 101.583496,24.922846 
	C94.298592,24.151072 87.824211,25.578339 82.222366,31.193752 
	C84.927757,31.713640 87.666481,31.566006 90.380295,31.762550 
	C92.382019,31.907524 94.844246,31.891045 96.237740,33.016098 
	C99.710091,35.819534 102.744507,39.181042 105.840767,42.427208 
	C107.141159,43.790550 107.983109,45.604618 109.329330,46.908249 
	C113.310616,50.763596 117.443802,54.461906 121.498695,58.241886 
	C121.720078,58.448254 121.702293,58.897713 121.909378,59.134888 
	C125.426414,63.163082 128.940430,67.194534 132.522171,71.164749 
	C132.918488,71.604073 133.748672,71.625824 134.336502,71.922699 
	C139.064438,74.310463 140.232162,80.721909 145.843170,82.133392 
	C145.913986,82.151207 145.932526,82.439667 145.948242,82.604408 
	C146.369400,87.016548 148.720810,87.522942 152.577896,86.397346 
	C155.572754,85.523384 159.435043,84.934013 160.640854,88.908012 
	C161.593201,92.046623 162.773300,93.886017 166.122925,94.305496 
	C166.874374,94.399605 167.461960,95.802086 167.849548,96.269836 
	C166.026871,98.236412 164.587540,99.789368 163.148209,101.342323 
	C165.360229,101.894958 167.589859,102.965843 169.780548,102.891327 
	C174.210983,102.740639 176.309479,104.639420 178.605240,108.457741 
	C181.041168,112.509178 185.881317,114.771103 188.871231,118.977661 
	C190.376282,121.095161 192.925903,123.315254 195.045441,125.203270 
	C198.533707,128.310516 202.381699,130.836273 204.588028,135.172607 
	C204.866928,135.720764 206.164246,135.663422 206.818420,136.127899 
	C207.866638,136.872147 209.424210,137.689880 209.623169,138.701431 
	C210.451630,142.913544 213.223633,143.252289 216.684601,143.026352 
	C224.995941,142.483749 228.282181,149.941635 233.258484,154.291550 
	C235.474091,156.228271 235.651138,160.519516 239.879517,161.063034 
	C240.611481,161.157135 241.792877,162.430054 241.750931,163.094360 
	C241.516968,166.799332 244.184128,167.218353 246.711624,168.137146 
	C247.850433,168.551102 249.448532,169.647751 249.569763,170.596710 
	C250.317291,176.447479 254.616348,177.651398 259.131653,178.128159 
	C260.322266,177.321884 261.827271,176.305969 262.880920,176.654510 
	C263.878815,176.984634 264.452637,178.717789 265.117676,179.888046 
	C265.523102,180.601486 265.748322,181.417313 265.872406,182.466125 
	C262.909698,184.459930 259.162231,185.536575 257.529816,188.009415 
	C252.646423,195.406906 245.727814,201.101364 242.590012,210.101532 
	C234.492355,233.328094 239.259277,257.031433 257.173920,273.749115 
	C268.829865,284.626251 282.688873,290.181061 299.569946,290.081970 
	C299.569946,281.403778 299.403473,273.128998 299.644409,264.866089 
	C299.754852,261.079803 298.923492,259.488495 294.698914,258.841187 
	C277.907043,256.268341 267.383331,240.310074 272.286713,224.968292 
	C278.283722,224.677795 282.793610,217.462799 281.186157,211.358337 
	C281.185822,211.306152 281.177063,211.202133 281.537598,211.369125 
	C283.843781,212.046402 285.789429,212.556702 286.775360,212.815277 
	C289.942932,210.586792 292.815887,208.565567 295.262604,206.844193 
	C297.394836,210.539978 298.333038,214.466278 300.654602,215.627945 
	C303.799896,217.201859 304.738281,219.044296 305.015198,222.010788 
	C305.136932,223.314728 305.455444,224.600296 305.684631,225.894211 
	C306.229858,225.888275 306.775116,225.882339 307.320374,225.876404 
	C307.546936,224.108383 307.626404,222.304749 308.043396,220.582840 
	C308.424286,219.009964 309.170471,217.525558 309.755676,216.002167 
M111.986191,144.970551 
	C111.986191,144.970551 111.758400,144.790619 112.333359,144.636139 
	C112.474884,144.284134 112.616402,143.932129 113.061264,143.023285 
	C114.937378,141.615616 116.813499,140.207947 119.390503,138.879059 
	C119.874405,138.466873 120.358307,138.054688 121.245064,137.220688 
	C121.990150,137.024399 122.735237,136.828125 124.114479,136.821564 
	C124.775597,136.404358 125.436714,135.987167 126.772308,135.245956 
	C127.512283,135.155182 128.252258,135.064407 129.252960,135.401413 
	C129.869888,135.155518 130.486816,134.909622 131.900696,134.381805 
	C133.568283,134.490845 135.235855,134.599884 137.270981,135.292145 
	C138.663818,135.424103 140.056641,135.556046 142.082733,135.715668 
	C143.065140,136.087799 144.047531,136.459915 145.316330,137.497025 
	C146.595993,137.965912 147.875656,138.434799 149.729721,139.072418 
	C150.503693,139.683243 151.277664,140.294067 152.119095,141.587021 
	C152.820816,142.016037 153.522537,142.445053 154.785889,143.233597 
	C157.253418,147.723358 159.720963,152.213120 162.111725,157.180237 
	C162.137894,157.524658 162.292206,157.796204 162.799911,158.635986 
	C162.830338,159.086227 162.860764,159.536484 162.597992,160.194565 
	C162.720154,160.464890 162.842300,160.735229 163.101318,161.583313 
	C163.112442,161.978470 163.123550,162.373627 163.161530,163.586121 
	C166.553940,165.589035 169.892365,166.330322 173.132965,162.446564 
	C173.173218,161.968918 173.213455,161.491287 173.523666,160.795929 
	C173.400314,160.525009 173.276962,160.254105 172.990402,159.238831 
	C172.826538,157.982315 172.662674,156.725784 172.848740,154.944931 
	C172.529022,154.310150 172.209305,153.675369 171.580597,152.399200 
	C171.147125,151.319092 170.723358,150.234970 170.278778,149.159470 
	C160.234924,124.862991 131.013550,116.629974 110.058594,132.482697 
	C100.026855,140.071854 94.632385,150.328934 94.663368,163.320709 
	C98.352592,163.320709 101.527885,163.320709 103.291130,163.320709 
	C105.341385,157.907166 107.053268,153.387085 109.318909,148.900558 
	C109.523521,148.236816 109.728134,147.573074 110.151917,146.534851 
	C110.317116,146.291733 110.523476,146.090942 111.314102,145.759567 
	C111.467926,145.429932 111.621758,145.100296 111.986191,144.970551 
M151.605240,176.459717 
	C151.293533,176.339005 150.981812,176.218307 150.579865,175.788498 
	C150.579865,175.788498 150.709854,175.493912 150.802734,174.625031 
	C149.912018,174.096115 149.027313,173.119705 148.129639,173.107605 
	C139.318954,172.988831 130.505569,172.985657 121.694656,173.091507 
	C120.740547,173.102951 119.797188,174.009567 118.714272,175.060165 
	C118.519264,175.387268 118.324257,175.714371 117.312881,176.175049 
	C116.876495,177.315384 116.060936,178.454987 116.058762,179.596146 
	C115.991455,214.871902 115.975975,250.147919 116.120941,285.423218 
	C116.125931,286.638062 117.859505,287.845825 119.613075,289.069794 
	C120.433853,289.140564 121.254631,289.211334 122.717812,289.778900 
	C130.122833,289.607086 137.527847,289.435272 145.643723,289.127930 
	C146.121628,289.175293 146.599533,289.222656 147.539734,289.725555 
	C148.730713,289.478302 149.921692,289.231049 151.657364,288.360168 
	C151.765152,287.877197 151.966858,287.394318 151.967270,286.911255 
	C151.988937,261.113922 152.009338,235.316544 151.950287,209.519333 
	C151.947540,208.321777 151.218414,207.125885 150.616730,205.229782 
	C150.686462,204.509995 150.756195,203.790207 151.483765,202.514938 
	C151.627060,193.965042 151.770355,185.415146 151.605240,176.459717 
M214.800644,206.025955 
	C218.219086,206.403961 221.656845,206.659744 225.050247,207.196136 
	C228.121552,207.681595 231.122330,208.646881 234.200272,209.038879 
	C235.327026,209.182373 236.586151,208.286499 237.784882,207.864761 
	C236.927612,205.579285 236.070358,203.293823 234.975967,200.163895 
	C234.214233,191.623108 233.452484,183.082306 232.661270,174.211105 
	C208.878693,174.211105 185.609665,174.186020 162.341385,174.305206 
	C161.435501,174.309845 159.828445,175.623947 159.743347,176.450912 
	C158.816772,185.452393 158.129089,194.478455 157.317871,204.198349 
	C165.430374,204.198349 172.644913,204.198349 180.301758,204.198349 
	C180.301758,232.731522 180.301758,260.620148 180.301758,288.992706 
	C191.199387,288.992706 201.629486,288.992706 212.839630,288.797729 
	C213.226288,286.959747 213.944061,285.122742 213.949722,283.283600 
	C214.028946,257.524628 214.011017,231.765366 214.800644,206.025955 
M120.098999,160.815430 
	C120.326706,159.767532 120.554413,158.719635 120.864891,157.146912 
	C121.146523,156.709396 121.428146,156.271896 122.426796,155.838791 
	C122.959267,154.915237 123.491730,153.991699 124.471413,152.596558 
	C125.780655,151.884918 127.089897,151.173279 129.012573,150.733231 
	C129.708694,150.376328 130.404816,150.019424 131.857895,149.330948 
	C134.886734,149.959030 137.915588,150.587097 141.089600,151.844299 
	C141.805939,152.183075 142.522293,152.521851 143.735641,153.105927 
	C144.199310,153.669067 144.662964,154.232224 145.105087,155.489487 
	C145.550583,155.937073 145.996078,156.384644 146.810226,157.291733 
	C147.041901,157.830902 147.273590,158.370056 146.943558,159.154495 
	C147.309509,159.766144 147.675461,160.377777 148.234314,161.509506 
	C148.232285,161.877731 148.230255,162.245941 148.186447,163.449417 
	C151.522552,165.892487 154.836487,166.001572 158.249939,162.491302 
	C158.196396,161.331131 158.142853,160.170975 158.394272,158.792038 
	C158.231461,158.534180 158.068665,158.276321 157.670624,157.395737 
	C157.575180,156.962860 157.479736,156.529984 158.037155,155.897644 
	C157.388336,154.918121 156.739517,153.938599 155.652893,152.492294 
	C154.638535,150.850464 153.624176,149.208649 152.740936,146.768829 
	C151.975449,146.303513 151.209976,145.838181 149.882645,145.124680 
	C148.577591,144.139481 147.272537,143.154266 145.688660,141.617462 
	C145.308594,141.503159 144.928528,141.388855 143.796921,141.171478 
	C141.564209,140.531906 139.331512,139.892334 136.732788,138.699234 
	C134.807144,138.870468 132.881516,139.041702 130.301773,139.363190 
	C129.203003,139.558167 128.104233,139.753143 126.782707,139.625290 
	C126.566254,139.837646 126.349792,140.050003 125.574783,140.651260 
	C122.831879,142.162277 120.088974,143.673294 116.738914,145.318619 
	C116.560417,145.673019 116.381927,146.027435 115.896698,146.969528 
	C111.716690,151.407104 109.588509,156.722656 109.159172,163.577271 
	C112.556343,165.477417 115.899803,166.347397 119.095367,162.385529 
	C119.228249,161.955399 119.361130,161.525253 120.098999,160.815430 
z"/>
<path fill="#F83E3D" opacity="1.000000" stroke="none" 
	d="
M145.001221,25.004667 
	C154.687668,25.001045 164.374100,24.997423 174.566040,25.347237 
	C178.561798,29.552412 182.748825,32.983562 185.385086,37.350811 
	C189.744919,44.573318 197.504395,47.666222 203.026184,53.433262 
	C207.692322,58.306660 211.402359,64.643448 218.777374,66.323196 
	C219.054504,66.386322 219.277130,66.751419 219.495224,67.001869 
	C227.724442,76.451210 239.811798,81.734009 246.930801,92.391594 
	C247.285263,92.922211 247.928009,93.260834 248.438431,93.686569 
	C255.944702,99.947708 263.478424,106.176598 270.924225,112.508820 
	C271.875305,113.317665 272.337250,114.686691 273.083496,115.755905 
	C273.735016,116.689407 274.297394,117.816063 275.192780,118.427017 
	C280.722107,122.199814 286.941681,125.204895 291.748779,129.723694 
	C296.570312,134.255997 303.218994,137.354156 305.426544,144.443283 
	C305.554077,144.852859 307.117981,144.815125 308.257629,144.990982 
	C308.501831,144.996414 308.990601,145.007843 308.993469,145.255066 
	C308.996307,145.502304 308.996887,145.997238 308.994873,146.408264 
	C309.251587,148.867859 309.510345,150.916443 309.769104,152.965012 
	C309.815125,155.343811 309.861115,157.722626 309.639099,160.541870 
	C309.371063,160.982330 308.977264,161.002792 308.597198,161.086533 
	C308.146790,164.448730 308.076477,167.727203 308.005493,171.380157 
	C308.005066,172.503891 308.005280,173.253128 307.652313,173.965607 
	C304.486755,172.289047 301.510986,170.893631 304.372620,166.713425 
	C305.090485,165.664764 304.943512,163.114029 304.130157,162.184677 
	C303.326447,161.266388 301.108856,161.103989 299.629242,161.341980 
	C293.115295,162.389709 291.105408,161.331924 288.873047,155.383453 
	C288.487396,154.355759 287.791290,153.211487 286.904144,152.642670 
	C280.876251,148.777740 274.413513,145.440384 271.812469,137.998001 
	C271.550629,137.248810 270.279480,136.840271 269.458923,136.300720 
	C266.905731,134.621933 264.208038,133.127792 261.822601,131.238525 
	C259.286285,129.229721 258.315491,125.353493 254.091812,125.250015 
	C253.259979,125.229630 252.282623,123.420082 251.700394,122.269669 
	C249.088852,117.109566 246.774506,111.673195 239.392853,112.724571 
	C239.076691,110.323418 238.823837,108.403015 238.489319,105.862274 
	C231.274292,107.730255 225.980438,105.597267 223.049759,98.757507 
	C222.887589,98.379028 222.219208,98.240715 221.835022,97.930466 
	C218.036163,94.862648 212.974625,92.480659 210.799469,88.516777 
	C208.430588,84.199890 205.280243,81.874229 201.386948,80.010971 
	C195.362854,77.127960 194.111633,68.673477 186.628906,67.625862 
	C184.768799,61.850113 180.581757,57.625263 177.208328,52.813477 
	C175.644211,50.582420 174.923203,48.952015 171.901657,48.926479 
	C166.406662,48.880032 161.368683,48.198692 158.413971,42.113255 
	C156.928848,39.054565 153.730423,35.592896 150.663605,34.799393 
	C144.659531,33.245903 144.763260,29.470133 145.001221,25.004667 
z"/>
<path fill="#F73636" opacity="1.000000" stroke="none" 
	d="
M308.013428,144.985550 
	C307.117981,144.815125 305.554077,144.852859 305.426544,144.443283 
	C303.218994,137.354156 296.570312,134.255997 291.748779,129.723694 
	C286.941681,125.204895 280.722107,122.199814 275.192780,118.427017 
	C274.297394,117.816063 273.735016,116.689407 273.083496,115.755905 
	C272.337250,114.686691 271.875305,113.317665 270.924225,112.508820 
	C263.478424,106.176598 255.944702,99.947708 248.438431,93.686569 
	C247.928009,93.260834 247.285263,92.922211 246.930801,92.391594 
	C239.811798,81.734009 227.724442,76.451210 219.495224,67.001869 
	C219.277130,66.751419 219.054504,66.386322 218.777374,66.323196 
	C211.402359,64.643448 207.692322,58.306660 203.026184,53.433262 
	C197.504395,47.666222 189.744919,44.573318 185.385086,37.350811 
	C182.748825,32.983562 178.561798,29.552412 175.034546,25.349846 
	C175.577667,24.797085 176.157776,24.595144 176.897751,24.121508 
	C182.390747,23.786592 187.723862,23.723372 193.766876,24.078789 
	C196.651581,24.666662 198.826401,24.835896 201.006226,25.384203 
	C202.194656,27.158966 203.244217,28.707191 204.604675,29.901150 
	C205.656509,30.824217 207.353516,31.049562 208.321411,32.024281 
	C212.384705,36.116261 216.071671,40.601463 220.304855,44.499115 
	C223.793701,47.711414 228.089539,50.041992 231.614609,53.221394 
	C237.621338,58.639076 243.274475,64.447289 249.153397,70.009834 
	C250.064880,70.872276 251.356567,71.762817 252.524078,71.837982 
	C255.208832,72.010826 255.822540,74.020248 257.379303,75.507225 
	C261.033081,78.997215 264.990570,81.859276 267.690765,86.482574 
	C269.210785,89.085167 273.188507,90.146866 275.756500,92.268822 
	C279.181183,95.098618 282.203125,98.412331 285.592590,101.288956 
	C291.515625,106.315788 297.514496,111.261200 303.650208,116.023468 
	C305.072296,117.127258 307.173492,117.356064 308.973877,118.457306 
	C308.978027,125.611397 308.970551,132.295670 308.693848,139.253448 
	C308.287506,141.346481 308.150452,143.166016 308.013428,144.985550 
z"/>
<path fill="#FB4341" opacity="1.000000" stroke="none" 
	d="
M144.533157,25.002520 
	C144.763260,29.470133 144.659531,33.245903 150.663605,34.799393 
	C153.730423,35.592896 156.928848,39.054565 158.413971,42.113255 
	C161.368683,48.198692 166.406662,48.880032 171.901657,48.926479 
	C174.923203,48.952015 175.644211,50.582420 177.208328,52.813477 
	C180.581757,57.625263 184.768799,61.850113 186.628906,67.625862 
	C194.111633,68.673477 195.362854,77.127960 201.386948,80.010971 
	C205.280243,81.874229 208.430588,84.199890 210.799469,88.516777 
	C212.974625,92.480659 218.036163,94.862648 221.835022,97.930466 
	C222.219208,98.240715 222.887589,98.379028 223.049759,98.757507 
	C225.980438,105.597267 231.274292,107.730255 238.489319,105.862274 
	C238.823837,108.403015 239.076691,110.323418 239.392853,112.724571 
	C246.774506,111.673195 249.088852,117.109566 251.700394,122.269669 
	C252.282623,123.420082 253.259979,125.229630 254.091812,125.250015 
	C258.315491,125.353493 259.286285,129.229721 261.822601,131.238525 
	C264.208038,133.127792 266.905731,134.621933 269.458923,136.300720 
	C270.279480,136.840271 271.550629,137.248810 271.812469,137.998001 
	C274.413513,145.440384 280.876251,148.777740 286.904144,152.642670 
	C287.791290,153.211487 288.487396,154.355759 288.873047,155.383453 
	C291.105408,161.331924 293.115295,162.389709 299.629242,161.341980 
	C301.108856,161.103989 303.326447,161.266388 304.130157,162.184677 
	C304.943512,163.114029 305.090485,165.664764 304.372620,166.713425 
	C301.510986,170.893631 304.486755,172.289047 307.873749,174.250427 
	C308.890991,174.744629 309.333618,174.917252 309.776306,175.089874 
	C309.764343,176.041656 309.752411,176.993454 309.414856,178.617004 
	C309.313995,181.177979 309.538818,183.067154 309.763611,184.956345 
	C309.811096,186.376068 309.858582,187.795792 309.587097,189.950638 
	C309.165344,193.783508 309.062531,196.881271 308.606140,200.022400 
	C306.167999,200.042419 304.083374,200.019073 301.998840,199.552200 
	C301.998871,196.740128 301.998810,194.371582 302.268433,191.772980 
	C302.358246,190.027771 302.178467,188.512634 301.998657,186.665741 
	C301.998352,185.891617 301.998108,185.449265 302.285706,184.729370 
	C302.637054,181.525436 304.763550,178.215225 300.870178,175.766266 
	C300.437622,175.347473 300.136139,175.163040 299.724915,174.850830 
	C299.615173,174.723053 299.567993,174.389496 299.653015,173.991852 
	C296.823303,173.428238 293.908600,173.262283 290.578491,173.088821 
	C287.775330,173.391571 285.387482,173.701859 282.999420,173.635742 
	C282.999054,172.506531 282.998932,171.753738 283.160889,170.690308 
	C285.187897,169.282822 287.052826,168.185989 289.462372,166.768814 
	C287.228546,163.579193 273.906128,169.982208 283.369934,158.751602 
	C280.680359,157.211945 278.331360,154.768860 275.909058,154.693878 
	C269.545929,154.496902 266.082550,150.290512 261.815308,146.638397 
	C265.418854,142.636459 263.365875,141.483170 259.494476,140.967819 
	C254.929535,140.360092 250.108582,140.096527 248.870789,134.066132 
	C248.693329,133.201614 246.894882,132.665329 245.840607,131.986496 
	C244.758972,131.290039 242.914215,130.779907 242.707504,129.886490 
	C241.420731,124.324905 237.518936,123.665062 232.811600,123.894653 
	C231.751266,123.946365 230.279205,123.468475 229.627869,122.699654 
	C225.625732,117.975616 221.963669,112.950142 216.927872,109.198372 
	C216.821259,109.118935 216.877960,108.826523 216.771667,108.739471 
	C215.658646,107.828011 214.542175,106.919456 213.398117,106.047554 
	C212.167847,105.109955 210.576111,104.450340 209.717346,103.255859 
	C206.146500,98.288986 201.995056,94.138161 196.349731,91.485741 
	C195.210190,90.950333 194.355377,89.081421 194.035141,87.675636 
	C193.283340,84.375435 192.028214,81.324623 188.454453,80.861153 
	C183.182877,80.177505 178.741119,79.241684 179.498016,72.360596 
	C179.560425,71.793159 178.628464,70.843956 177.944946,70.512405 
	C174.329926,68.758850 170.740082,66.880959 166.964096,65.549194 
	C161.748367,63.709641 160.887787,61.952522 163.436966,57.371944 
	C163.873627,56.587326 163.498734,55.351063 163.498734,54.227398 
	C160.910980,54.786034 158.154190,56.321877 156.705170,55.513504 
	C152.725937,53.293606 148.661957,50.603935 145.836472,47.122314 
	C143.295532,43.991318 142.352325,39.563717 140.818817,35.975826 
	C136.447464,33.305614 131.970505,30.664423 127.634003,27.809860 
	C127.057610,27.430445 127.194603,25.967287 127.001221,25.006020 
	C132.689178,25.004137 138.377136,25.002254 144.533157,25.002520 
z"/>
<path fill="#F43031" opacity="1.000000" stroke="none" 
	d="
M308.962219,117.987488 
	C307.173492,117.356064 305.072296,117.127258 303.650208,116.023468 
	C297.514496,111.261200 291.515625,106.315788 285.592590,101.288956 
	C282.203125,98.412331 279.181183,95.098618 275.756500,92.268822 
	C273.188507,90.146866 269.210785,89.085167 267.690765,86.482574 
	C264.990570,81.859276 261.033081,78.997215 257.379303,75.507225 
	C255.822540,74.020248 255.208832,72.010826 252.524078,71.837982 
	C251.356567,71.762817 250.064880,70.872276 249.153397,70.009834 
	C243.274475,64.447289 237.621338,58.639076 231.614609,53.221394 
	C228.089539,50.041992 223.793701,47.711414 220.304855,44.499115 
	C216.071671,40.601463 212.384705,36.116261 208.321411,32.024281 
	C207.353516,31.049562 205.656509,30.824217 204.604675,29.901150 
	C203.244217,28.707191 202.194656,27.158966 201.007477,25.104546 
	C200.997818,24.259512 200.991928,24.073206 200.986023,23.886900 
	C205.688309,23.816135 210.390610,23.745371 215.551407,24.179960 
	C218.225250,26.590759 220.539322,28.394041 222.636902,30.421314 
	C228.332626,35.926083 235.012894,40.809727 239.308456,47.266449 
	C244.857910,55.607899 253.497604,59.234909 261.139679,64.124161 
	C266.076141,67.282410 269.564453,70.616768 271.968445,75.708260 
	C272.826385,77.525269 274.354034,79.321754 276.041565,80.396782 
	C281.435120,83.832741 288.573944,84.851524 291.363159,91.812836 
	C291.533630,92.238266 292.061920,92.513535 292.402069,92.878815 
	C296.538574,97.321014 303.547119,98.447372 306.130402,104.739838 
	C306.251923,105.035820 307.376343,104.920074 308.318726,105.293251 
	C308.723236,109.722778 308.842712,113.855133 308.962219,117.987488 
z"/>
<path fill="#F12929" opacity="1.000000" stroke="none" 
	d="
M233.996887,23.908615 
	C238.360275,23.820211 242.723663,23.731808 247.628784,23.992725 
	C248.426666,24.563173 248.682785,24.784302 249.288467,25.054516 
	C250.104340,25.165510 250.570679,25.227419 251.031097,25.634136 
	C252.615967,27.731657 254.066559,29.641102 255.821274,31.210537 
	C264.394440,38.878532 273.070557,46.431290 281.664948,54.075745 
	C285.823761,57.774895 289.336639,62.710457 294.135223,65.042000 
	C299.323120,67.562706 303.555939,70.150581 305.364410,75.850746 
	C306.844238,74.676552 307.903748,73.835876 308.974609,73.463654 
	C308.973724,79.952026 308.961487,85.971970 308.605377,92.029572 
	C307.163086,92.158493 305.673859,92.755684 305.029999,92.258385 
	C301.030579,89.169174 297.135895,85.929070 293.372559,82.553848 
	C289.811035,79.359650 286.570496,75.805389 282.983612,72.642113 
	C273.061798,63.892033 261.108521,57.331451 253.982315,45.570061 
	C253.484497,44.748436 252.636688,44.062237 251.811981,43.529018 
	C248.778503,41.567680 245.021988,40.270683 242.769058,37.660675 
	C239.244293,33.577213 234.381149,30.081665 233.996887,23.908615 
z"/>
<path fill="#F32E2D" opacity="1.000000" stroke="none" 
	d="
M233.542114,23.787212 
	C234.381149,30.081665 239.244293,33.577213 242.769058,37.660675 
	C245.021988,40.270683 248.778503,41.567680 251.811981,43.529018 
	C252.636688,44.062237 253.484497,44.748436 253.982315,45.570061 
	C261.108521,57.331451 273.061798,63.892033 282.983612,72.642113 
	C286.570496,75.805389 289.811035,79.359650 293.372559,82.553848 
	C297.135895,85.929070 301.030579,89.169174 305.029999,92.258385 
	C305.673859,92.755684 307.163086,92.158493 308.621002,92.483337 
	C308.664886,96.931648 308.349274,100.963860 308.033691,104.996078 
	C307.376343,104.920074 306.251923,105.035820 306.130402,104.739838 
	C303.547119,98.447372 296.538574,97.321014 292.402069,92.878815 
	C292.061920,92.513535 291.533630,92.238266 291.363159,91.812836 
	C288.573944,84.851524 281.435120,83.832741 276.041565,80.396782 
	C274.354034,79.321754 272.826385,77.525269 271.968445,75.708260 
	C269.564453,70.616768 266.076141,67.282410 261.139679,64.124161 
	C253.497604,59.234909 244.857910,55.607899 239.308456,47.266449 
	C235.012894,40.809727 228.332626,35.926083 222.636902,30.421314 
	C220.539322,28.394041 218.225250,26.590759 216.004120,24.303761 
	C221.694656,23.836739 227.390991,23.751274 233.542114,23.787212 
z"/>
<path fill="#ED2020" opacity="1.000000" stroke="none" 
	d="
M283.227478,24.853384 
	C295.832916,25.051573 304.799866,31.969332 308.213684,44.076698 
	C308.462799,44.960102 309.017181,45.757427 309.296173,47.465408 
	C308.793976,53.226429 308.425232,58.116810 307.683472,62.998283 
	C306.496490,62.536926 305.515778,62.246380 304.894592,61.606712 
	C299.328827,55.875496 297.373627,46.035118 286.884766,45.887093 
	C286.346832,45.879498 285.621613,45.265358 285.317657,44.740242 
	C282.783997,40.363125 280.313416,35.966152 274.414185,35.597393 
	C274.156799,35.581303 273.726440,35.194836 273.708069,34.955463 
	C273.327576,29.995815 269.692261,27.643494 266.503540,25.245605 
	C272.386169,25.080908 277.806824,24.967146 283.227478,24.853384 
z"/>
<path fill="#FC4748" opacity="1.000000" stroke="none" 
	d="
M301.998779,199.995728 
	C304.083374,200.019073 306.167999,200.042419 308.619598,200.467667 
	C309.243683,203.894424 309.500763,206.919281 309.757874,209.944153 
	C309.810822,211.678574 309.863770,213.412979 309.836182,215.574783 
	C309.170471,217.525558 308.424286,219.009964 308.043396,220.582840 
	C307.626404,222.304749 307.546936,224.108383 307.320374,225.876404 
	C306.775116,225.882339 306.229858,225.888275 305.684631,225.894211 
	C305.455444,224.600296 305.136932,223.314728 305.015198,222.010788 
	C304.738281,219.044296 303.799896,217.201859 300.654602,215.627945 
	C298.333038,214.466278 297.394836,210.539978 295.262604,206.844193 
	C292.815887,208.565567 289.942932,210.586792 286.775360,212.815277 
	C285.789429,212.556702 283.843781,212.046402 281.739868,211.104095 
	C283.576019,209.274826 285.570435,207.877563 287.916443,206.601135 
	C289.915283,206.037216 291.562500,205.352448 293.549377,204.547577 
	C294.603668,204.357895 295.318359,204.288300 296.287354,204.453766 
	C297.558777,203.994980 298.575836,203.301117 299.613037,202.438202 
	C299.633179,202.269150 299.856964,202.012482 300.192322,201.973877 
	C301.018066,201.288757 301.508423,200.642242 301.998779,199.995728 
M303.881592,205.724350 
	C304.424835,205.532166 304.968109,205.339996 305.511353,205.147812 
	C305.384064,204.869202 305.256775,204.590607 305.129486,204.311996 
	C304.570312,204.637756 304.011139,204.963501 303.881592,205.724350 
z"/>
<path fill="#F4374D" opacity="1.000000" stroke="none" 
	d="
M308.056458,63.007191 
	C308.425232,58.116810 308.793976,53.226429 309.292786,47.845772 
	C309.628387,48.805687 310.012970,50.255852 310.013153,51.706066 
	C310.016846,80.492210 309.976105,109.278366 309.663025,138.526276 
	C309.381683,138.988037 308.963104,138.979950 308.963104,138.979950 
	C308.970551,132.295670 308.978027,125.611397 308.973877,118.457306 
	C308.842712,113.855133 308.723236,109.722778 308.318726,105.293251 
	C308.349274,100.963860 308.664886,96.931648 308.964844,92.445663 
	C308.961487,85.971970 308.973724,79.952026 308.987244,73.024063 
	C308.677795,69.079758 308.367126,66.043472 308.056458,63.007191 
z"/>
<path fill="#FE4B4B" opacity="1.000000" stroke="none" 
	d="
M283.043213,24.503391 
	C277.806824,24.967146 272.386169,25.080908 266.035950,25.184151 
	C260.416595,25.212196 255.726791,25.250763 251.037003,25.289330 
	C250.570679,25.227419 250.104340,25.165510 249.293518,24.798187 
	C248.964920,24.322546 248.980820,24.152319 248.996719,23.982090 
	C260.284149,24.039192 271.571564,24.096296 283.043213,24.503391 
z"/>
<path fill="#FE4B4B" opacity="1.000000" stroke="none" 
	d="
M309.842773,209.486755 
	C309.500763,206.919281 309.243683,203.894424 308.973145,200.424286 
	C309.062531,196.881271 309.165344,193.783508 309.510193,190.370926 
	C309.810730,196.380508 309.869202,202.704941 309.842773,209.486755 
z"/>
<path fill="#FB4341" opacity="1.000000" stroke="none" 
	d="
M308.006104,171.005661 
	C308.076477,167.727203 308.146790,164.448730 308.604004,161.554794 
	C309.053040,164.150299 309.115204,166.361282 309.177368,168.572266 
	C309.412811,169.139954 309.648254,169.707626 309.387238,170.614075 
	C308.595856,170.970444 308.300964,170.988052 308.006104,171.005661 
z"/>
<path fill="#FE4B4B" opacity="1.000000" stroke="none" 
	d="
M308.693848,139.253448 
	C308.963104,138.979950 309.381683,138.988037 309.591003,138.989304 
	C309.855927,140.714432 309.911530,142.438293 309.682617,144.583649 
	C309.398071,145.005127 308.990601,145.007843 308.990601,145.007843 
	C308.990601,145.007843 308.501831,144.996414 308.257629,144.990982 
	C308.150452,143.166016 308.287506,141.346481 308.693848,139.253448 
z"/>
<path fill="#FE4B4B" opacity="1.000000" stroke="none" 
	d="
M308.005493,171.380157 
	C308.300964,170.988052 308.595856,170.970444 309.334229,170.939026 
	C309.835785,172.121536 309.893890,173.317856 309.864136,174.802032 
	C309.333618,174.917252 308.890991,174.744629 308.226898,174.287186 
	C308.005280,173.253128 308.005066,172.503891 308.005493,171.380157 
z"/>
<path fill="#F83E3D" opacity="1.000000" stroke="none" 
	d="
M200.561569,23.761482 
	C200.991928,24.073206 200.997818,24.259512 201.002472,24.725473 
	C198.826401,24.835896 196.651581,24.666662 194.222214,24.187519 
	C196.024155,23.797094 198.080627,23.716579 200.561569,23.761482 
z"/>
<path fill="#FE4B4B" opacity="1.000000" stroke="none" 
	d="
M309.499542,168.271362 
	C309.115204,166.361282 309.053040,164.150299 308.984070,161.471054 
	C308.977264,161.002792 309.371063,160.982330 309.568237,160.982086 
	C309.784180,163.311371 309.802948,165.640915 309.499542,168.271362 
z"/>
<path fill="#FE4B4B" opacity="1.000000" stroke="none" 
	d="
M309.862305,152.537155 
	C309.510345,150.916443 309.251587,148.867859 309.196411,146.407272 
	C309.399994,145.995270 309.802826,145.988220 309.802826,145.988220 
	C309.853729,148.028580 309.904633,150.068939 309.862305,152.537155 
z"/>
<path fill="#FE4B4B" opacity="1.000000" stroke="none" 
	d="
M309.852905,184.541016 
	C309.538818,183.067154 309.313995,181.177979 309.137695,178.853943 
	C309.438171,180.321304 309.690186,182.223495 309.852905,184.541016 
z"/>
<path fill="#F1303D" opacity="1.000000" stroke="none" 
	d="
M248.760971,23.836040 
	C248.980820,24.152319 248.964920,24.322546 248.943970,24.749104 
	C248.682785,24.784302 248.426666,24.563173 248.083420,24.099529 
	C248.172623,23.801338 248.348923,23.745663 248.760971,23.836040 
z"/>
<path fill="#F4374D" opacity="1.000000" stroke="none" 
	d="
M309.866058,145.744049 
	C309.802826,145.988220 309.399994,145.995270 309.198425,145.996246 
	C308.996887,145.997238 308.996307,145.502304 308.993469,145.255066 
	C308.990601,145.007843 309.398071,145.005127 309.601135,145.008148 
	C309.845886,145.174072 309.887573,145.336975 309.866058,145.744049 
z"/>
<path fill="#FFFCFA" opacity="1.000000" stroke="none" 
	d="
M212.059570,288.992706 
	C201.629486,288.992706 191.199387,288.992706 180.301758,288.992706 
	C180.301758,260.620148 180.301758,232.731522 180.301758,204.198349 
	C172.644913,204.198349 165.430374,204.198349 157.317871,204.198349 
	C158.129089,194.478455 158.816772,185.452393 159.743347,176.450912 
	C159.828445,175.623947 161.435501,174.309845 162.341385,174.305206 
	C185.609665,174.186020 208.878693,174.211105 232.661270,174.211105 
	C233.452484,183.082306 234.214233,191.623108 235.022095,201.007599 
	C233.689865,202.564545 232.346893,203.802826 230.926941,203.898499 
	C225.315323,204.276627 219.679581,204.296509 213.605026,204.581680 
	C212.835007,207.447311 212.244568,210.179321 212.232239,212.913925 
	C212.117920,238.273254 212.103195,263.633057 212.059570,288.992706 
z"/>
<path fill="#FD4746" opacity="1.000000" stroke="none" 
	d="
M282.998779,171.000931 
	C282.998932,171.753738 282.999054,172.506531 282.675537,173.775589 
	C276.919434,176.923615 271.486938,179.555389 266.054474,182.187164 
	C265.748322,181.417313 265.523102,180.601486 265.117676,179.888046 
	C264.452637,178.717789 263.878815,176.984634 262.880920,176.654510 
	C261.827271,176.305969 260.322266,177.321884 259.131653,178.128159 
	C254.616348,177.651398 250.317291,176.447479 249.569763,170.596710 
	C249.448532,169.647751 247.850433,168.551102 246.711624,168.137146 
	C244.184128,167.218353 241.516968,166.799332 241.750931,163.094360 
	C241.792877,162.430054 240.611481,161.157135 239.879517,161.063034 
	C235.651138,160.519516 235.474091,156.228271 233.258484,154.291550 
	C228.282181,149.941635 224.995941,142.483749 216.684601,143.026352 
	C213.223633,143.252289 210.451630,142.913544 209.623169,138.701431 
	C209.424210,137.689880 207.866638,136.872147 206.818420,136.127899 
	C206.164246,135.663422 204.866928,135.720764 204.588028,135.172607 
	C202.381699,130.836273 198.533707,128.310516 195.045441,125.203270 
	C192.925903,123.315254 190.376282,121.095161 188.871231,118.977661 
	C185.881317,114.771103 181.041168,112.509178 178.605240,108.457741 
	C176.309479,104.639420 174.210983,102.740639 169.780548,102.891327 
	C167.589859,102.965843 165.360229,101.894958 163.148209,101.342323 
	C164.587540,99.789368 166.026871,98.236412 167.849548,96.269836 
	C167.461960,95.802086 166.874374,94.399605 166.122925,94.305496 
	C162.773300,93.886017 161.593201,92.046623 160.640854,88.908012 
	C159.435043,84.934013 155.572754,85.523384 152.577896,86.397346 
	C148.720810,87.522942 146.369400,87.016548 145.948242,82.604408 
	C145.932526,82.439667 145.913986,82.151207 145.843170,82.133392 
	C140.232162,80.721909 139.064438,74.310463 134.336502,71.922699 
	C133.748672,71.625824 132.918488,71.604073 132.522171,71.164749 
	C128.940430,67.194534 125.426414,63.163082 121.909378,59.134888 
	C121.702293,58.897713 121.720078,58.448254 121.498695,58.241886 
	C117.443802,54.461906 113.310616,50.763596 109.329330,46.908249 
	C107.983109,45.604618 107.141159,43.790550 105.840767,42.427208 
	C102.744507,39.181042 99.710091,35.819534 96.237740,33.016098 
	C94.844246,31.891045 92.382019,31.907524 90.380295,31.762550 
	C87.666481,31.566006 84.927757,31.713640 82.222366,31.193752 
	C87.824211,25.578339 94.298592,24.151072 101.583496,24.922846 
	C105.700554,25.359011 109.901611,25.002359 114.537582,25.373383 
	C115.370674,26.635864 115.491219,27.785360 116.129082,28.379162 
	C121.485939,33.366058 128.937988,35.311031 133.570465,41.751995 
	C136.853317,46.316437 143.336578,48.280598 145.526871,54.305649 
	C145.786896,55.020954 147.102097,55.688522 147.991989,55.784107 
	C153.471786,56.372723 156.117844,60.914116 159.603073,64.133812 
	C165.758957,69.820679 171.614059,75.835396 177.543121,81.764816 
	C182.654602,86.876595 191.126877,88.161407 193.803696,96.052452 
	C193.890289,96.307716 194.349304,96.650459 194.577942,96.612289 
	C199.651810,95.765121 201.023163,100.109169 203.408813,102.945702 
	C205.550537,105.492172 207.490601,108.207344 209.579483,110.799873 
	C209.969711,111.284203 210.595566,111.696808 211.192917,111.878136 
	C218.376450,114.058662 222.653946,119.215569 225.987137,125.623512 
	C226.769043,127.126678 229.053513,127.817596 230.580093,128.970428 
	C233.794022,131.397537 237.003250,133.834076 240.141785,136.357071 
	C244.073380,139.517593 247.809845,142.933578 251.856110,145.935226 
	C256.033417,149.034058 260.604889,151.602936 264.768433,154.718384 
	C267.644623,156.870529 271.212585,159.082764 272.529388,162.112274 
	C274.713257,167.136536 278.528839,169.209518 282.998779,171.000931 
z"/>
<path fill="#FEFCFA" opacity="1.000000" stroke="none" 
	d="
M265.872406,182.466125 
	C271.486938,179.555389 276.919434,176.923615 282.675781,174.151978 
	C285.387482,173.701859 287.775330,173.391571 290.867493,173.354019 
	C294.237213,173.880997 296.902588,174.135239 299.567993,174.389496 
	C299.567993,174.389496 299.615173,174.723053 299.619415,175.311005 
	C299.701416,184.603470 299.779175,193.307983 299.856964,202.012482 
	C299.856964,202.012482 299.633179,202.269150 299.303040,202.572128 
	C297.992950,203.322983 297.012970,203.770844 296.033020,204.218719 
	C295.318359,204.288300 294.603668,204.357895 293.220215,204.401978 
	C290.889191,205.077759 289.227020,205.779007 287.564819,206.480270 
	C285.570435,207.877563 283.576019,209.274826 281.379333,210.937103 
	C281.177063,211.202133 281.185822,211.306152 280.883575,211.420959 
	C275.384277,214.520218 273.342468,219.552979 271.869720,224.955170 
	C267.383331,240.310074 277.907043,256.268341 294.698914,258.841187 
	C298.923492,259.488495 299.754852,261.079803 299.644409,264.866089 
	C299.403473,273.128998 299.569946,281.403778 299.569946,290.081970 
	C282.688873,290.181061 268.829865,284.626251 257.173920,273.749115 
	C239.259277,257.031433 234.492355,233.328094 242.590012,210.101532 
	C245.727814,201.101364 252.646423,195.406906 257.529816,188.009415 
	C259.162231,185.536575 262.909698,184.459930 265.872406,182.466125 
z"/>
<path fill="#FFFEFC" opacity="1.000000" stroke="none" 
	d="
M150.825928,203.070419 
	C150.756195,203.790207 150.686462,204.509995 150.626007,206.046967 
	C150.656555,233.771591 150.677856,260.679047 150.412506,287.784607 
	C149.109711,288.411804 148.093582,288.840881 147.077438,289.270020 
	C146.599533,289.222656 146.121628,289.175293 144.957489,288.972656 
	C136.872635,288.972321 129.474030,289.127197 122.075409,289.282104 
	C121.254631,289.211334 120.433853,289.140564 119.152565,288.632416 
	C118.592918,259.777222 118.507210,231.359329 118.386757,202.941589 
	C118.348755,193.974686 118.217720,185.008179 118.129257,176.041489 
	C118.324257,175.714371 118.519264,175.387268 119.258499,174.838806 
	C123.911324,174.628250 128.022949,174.542999 132.127838,174.672333 
	C138.324310,174.867599 144.516083,175.212570 150.709854,175.493912 
	C150.709854,175.493912 150.579865,175.788498 150.557465,176.137375 
	C150.535065,176.486252 150.699326,176.864502 150.653976,177.339874 
	C150.681061,186.233627 150.753510,194.652023 150.825928,203.070419 
z"/>
<path fill="#FC4443" opacity="1.000000" stroke="none" 
	d="
M283.160889,170.690308 
	C278.528839,169.209518 274.713257,167.136536 272.529388,162.112274 
	C271.212585,159.082764 267.644623,156.870529 264.768433,154.718384 
	C260.604889,151.602936 256.033417,149.034058 251.856110,145.935226 
	C247.809845,142.933578 244.073380,139.517593 240.141785,136.357071 
	C237.003250,133.834076 233.794022,131.397537 230.580093,128.970428 
	C229.053513,127.817596 226.769043,127.126678 225.987137,125.623512 
	C222.653946,119.215569 218.376450,114.058662 211.192917,111.878136 
	C210.595566,111.696808 209.969711,111.284203 209.579483,110.799873 
	C207.490601,108.207344 205.550537,105.492172 203.408813,102.945702 
	C201.023163,100.109169 199.651810,95.765121 194.577942,96.612289 
	C194.349304,96.650459 193.890289,96.307716 193.803696,96.052452 
	C191.126877,88.161407 182.654602,86.876595 177.543121,81.764816 
	C171.614059,75.835396 165.758957,69.820679 159.603073,64.133812 
	C156.117844,60.914116 153.471786,56.372723 147.991989,55.784107 
	C147.102097,55.688522 145.786896,55.020954 145.526871,54.305649 
	C143.336578,48.280598 136.853317,46.316437 133.570465,41.751995 
	C128.937988,35.311031 121.485939,33.366058 116.129082,28.379162 
	C115.491219,27.785360 115.370674,26.635864 115.006393,25.375156 
	C118.694862,25.004827 122.387283,25.003292 126.540459,25.003887 
	C127.194603,25.967287 127.057610,27.430445 127.634003,27.809860 
	C131.970505,30.664423 136.447464,33.305614 140.818817,35.975826 
	C142.352325,39.563717 143.295532,43.991318 145.836472,47.122314 
	C148.661957,50.603935 152.725937,53.293606 156.705170,55.513504 
	C158.154190,56.321877 160.910980,54.786034 163.498734,54.227398 
	C163.498734,55.351063 163.873627,56.587326 163.436966,57.371944 
	C160.887787,61.952522 161.748367,63.709641 166.964096,65.549194 
	C170.740082,66.880959 174.329926,68.758850 177.944946,70.512405 
	C178.628464,70.843956 179.560425,71.793159 179.498016,72.360596 
	C178.741119,79.241684 183.182877,80.177505 188.454453,80.861153 
	C192.028214,81.324623 193.283340,84.375435 194.035141,87.675636 
	C194.355377,89.081421 195.210190,90.950333 196.349731,91.485741 
	C201.995056,94.138161 206.146500,98.288986 209.717346,103.255859 
	C210.576111,104.450340 212.167847,105.109955 213.398117,106.047554 
	C214.542175,106.919456 215.658646,107.828011 216.771667,108.739471 
	C216.877960,108.826523 216.821259,109.118935 216.927872,109.198372 
	C221.963669,112.950142 225.625732,117.975616 229.627869,122.699654 
	C230.279205,123.468475 231.751266,123.946365 232.811600,123.894653 
	C237.518936,123.665062 241.420731,124.324905 242.707504,129.886490 
	C242.914215,130.779907 244.758972,131.290039 245.840607,131.986496 
	C246.894882,132.665329 248.693329,133.201614 248.870789,134.066132 
	C250.108582,140.096527 254.929535,140.360092 259.494476,140.967819 
	C263.365875,141.483170 265.418854,142.636459 261.815308,146.638397 
	C266.082550,150.290512 269.545929,154.496902 275.909058,154.693878 
	C278.331360,154.768860 280.680359,157.211945 283.369934,158.751602 
	C273.906128,169.982208 287.228546,163.579193 289.462372,166.768814 
	C287.052826,168.185989 285.187897,169.282822 283.160889,170.690308 
z"/>
<path fill="#FBF5F0" opacity="1.000000" stroke="none" 
	d="
M136.903442,134.708908 
	C135.235855,134.599884 133.568283,134.490845 131.235168,134.386230 
	C130.043854,134.584976 129.518036,134.779312 128.992233,134.973633 
	C128.252258,135.064407 127.512283,135.155182 126.139503,135.318726 
	C124.831238,135.804947 124.155777,136.218399 123.480324,136.631836 
	C122.735237,136.828125 121.990150,137.024399 120.728287,137.476807 
	C119.704208,138.088699 119.196907,138.444473 118.689613,138.800262 
	C116.813499,140.207947 114.937378,141.615616 112.663147,143.428802 
	C112.096161,144.153091 111.927284,144.471848 111.758400,144.790619 
	C111.758400,144.790619 111.986191,144.970551 111.626602,144.975937 
	C111.101685,145.298370 110.936348,145.615417 110.771011,145.932465 
	C110.523476,146.090942 110.317116,146.291733 109.778183,146.869583 
	C109.191353,147.758545 108.978256,148.312775 108.765152,148.867004 
	C107.053268,153.387085 105.341385,157.907166 103.291130,163.320709 
	C101.527885,163.320709 98.352592,163.320709 94.663368,163.320709 
	C94.632385,150.328934 100.026855,140.071854 110.058594,132.482697 
	C131.013550,116.629974 160.234924,124.862991 170.278778,149.159470 
	C170.723358,150.234970 171.147125,151.319092 171.718430,153.042267 
	C172.070435,154.279984 172.284622,154.874619 172.498810,155.469269 
	C172.662674,156.725784 172.826538,157.982315 173.018127,159.876297 
	C173.115112,160.680389 173.184402,160.847015 173.253693,161.013641 
	C173.213455,161.491287 173.173218,161.968918 172.641937,162.838898 
	C169.145493,163.077072 166.140076,162.922928 163.134674,162.768784 
	C163.123550,162.373627 163.112442,161.978470 163.081879,161.034882 
	C163.005371,160.319870 162.948273,160.153305 162.891174,159.986725 
	C162.860764,159.536484 162.830338,159.086227 162.738617,158.077820 
	C162.636139,157.174561 162.473206,156.902298 162.188507,156.702881 
	C159.720963,152.213120 157.253418,147.723358 154.410248,142.754089 
	C153.373611,141.818039 152.712616,141.361465 152.051636,140.904892 
	C151.277664,140.294067 150.503693,139.683243 149.252869,138.703674 
	C147.527313,137.833984 146.278625,137.333008 145.029938,136.832047 
	C144.047531,136.459915 143.065140,136.087799 141.495285,135.475128 
	C139.573044,135.059357 138.238235,134.884140 136.903442,134.708908 
z"/>
<path fill="#FBF2EE" opacity="1.000000" stroke="none" 
	d="
M152.609818,147.566818 
	C153.624176,149.208649 154.638535,150.850464 155.881561,153.018936 
	C156.534897,154.396088 156.959595,155.246597 157.384293,156.097107 
	C157.479736,156.529984 157.575180,156.962860 157.768723,157.967270 
	C157.940979,158.696121 158.015137,158.853455 158.089310,159.010803 
	C158.142853,160.170975 158.196396,161.331131 157.726532,162.905121 
	C154.211502,163.084015 151.219864,162.849091 148.228241,162.614166 
	C148.230255,162.245941 148.232285,161.877731 148.176331,160.969757 
	C147.913986,159.923096 147.709641,159.416153 147.505280,158.909225 
	C147.273590,158.370056 147.041901,157.830902 146.573242,156.747925 
	C145.933044,155.734528 145.529846,155.264954 145.126633,154.795364 
	C144.662964,154.232224 144.199310,153.669067 143.378082,152.691742 
	C142.328491,151.923431 141.636459,151.569305 140.944427,151.215179 
	C137.915588,150.587097 134.886734,149.959030 131.191177,149.377502 
	C129.816025,149.769928 129.107574,150.115784 128.399139,150.461639 
	C127.089897,151.173279 125.780655,151.884918 123.951515,152.936554 
	C122.857674,154.129166 122.283722,154.981766 121.709770,155.834381 
	C121.428146,156.271896 121.146523,156.709396 120.584717,157.621155 
	C120.034355,159.095291 119.764175,160.095200 119.494003,161.095108 
	C119.361130,161.525253 119.228249,161.955399 118.610184,162.790405 
	C115.130379,163.049332 112.135765,162.903381 109.141151,162.757416 
	C109.588509,156.722656 111.716690,151.407104 116.310944,146.552490 
	C116.932152,145.818405 117.139114,145.501358 117.346077,145.184311 
	C120.088974,143.673294 122.831879,142.162277 126.095215,140.442596 
	C126.615646,140.233917 127.005463,139.948120 127.005463,139.948120 
	C128.104233,139.753143 129.203003,139.558167 130.972260,139.452576 
	C133.461441,139.445557 135.280121,139.349152 137.098801,139.252747 
	C139.331512,139.892334 141.564209,140.531906 144.345612,141.461945 
	C145.252029,141.891296 145.609756,142.030182 145.967484,142.169067 
	C147.272537,143.154266 148.577591,144.139481 150.287354,145.542572 
	C151.331299,146.495926 151.970566,147.031372 152.609818,147.566818 
z"/>
<path fill="#FD414A" opacity="1.000000" stroke="none" 
	d="
M117.721069,176.108276 
	C118.217720,185.008179 118.348755,193.974686 118.386757,202.941589 
	C118.507210,231.359329 118.592918,259.777222 118.739716,288.625977 
	C117.859505,287.845825 116.125931,286.638062 116.120941,285.423218 
	C115.975975,250.147919 115.991455,214.871902 116.058762,179.596146 
	C116.060936,178.454987 116.876495,177.315384 117.721069,176.108276 
z"/>
<path fill="#FF3D4E" opacity="1.000000" stroke="none" 
	d="
M212.449600,288.895203 
	C212.103195,263.633057 212.117920,238.273254 212.232239,212.913925 
	C212.244568,210.179321 212.835007,207.447311 213.588089,204.971954 
	C214.018173,205.488602 214.017441,205.747391 214.016708,206.006165 
	C214.011017,231.765366 214.028946,257.524628 213.949722,283.283600 
	C213.944061,285.122742 213.226288,286.959747 212.449600,288.895203 
z"/>
<path fill="#FB4748" opacity="1.000000" stroke="none" 
	d="
M214.408676,206.016052 
	C214.017441,205.747391 214.018173,205.488602 214.035843,204.839539 
	C219.679581,204.296509 225.315323,204.276627 230.926941,203.898499 
	C232.346893,203.802826 233.689865,202.564545 235.140656,201.429825 
	C236.070358,203.293823 236.927612,205.579285 237.784882,207.864761 
	C236.586151,208.286499 235.327026,209.182373 234.200272,209.038879 
	C231.122330,208.646881 228.121552,207.681595 225.050247,207.196136 
	C221.656845,206.659744 218.219086,206.403961 214.408676,206.016052 
z"/>
<path fill="#FF3E4D" opacity="1.000000" stroke="none" 
	d="
M150.699158,287.586487 
	C150.677856,260.679047 150.656555,233.771591 150.731415,206.396667 
	C151.218414,207.125885 151.947540,208.321777 151.950287,209.519333 
	C152.009338,235.316544 151.988937,261.113922 151.967270,286.911255 
	C151.966858,287.394318 151.765152,287.877197 151.306381,288.315247 
	C150.869995,288.042389 150.784576,287.814453 150.699158,287.586487 
z"/>
<path fill="#FC4748" opacity="1.000000" stroke="none" 
	d="
M272.286713,224.968292 
	C273.342468,219.552979 275.384277,214.520218 280.883911,211.473145 
	C282.793610,217.462799 278.283722,224.677795 272.286713,224.968292 
z"/>
<path fill="#FC6B6F" opacity="1.000000" stroke="none" 
	d="
M150.756287,175.059479 
	C144.516083,175.212570 138.324310,174.867599 132.127838,174.672333 
	C128.022949,174.542999 123.911324,174.628250 119.325775,174.559189 
	C119.797188,174.009567 120.740547,173.102951 121.694656,173.091507 
	C130.505569,172.985657 139.318954,172.988831 148.129639,173.107605 
	C149.027313,173.119705 149.912018,174.096115 150.756287,175.059479 
z"/>
<path fill="#FC6B6F" opacity="1.000000" stroke="none" 
	d="
M122.396606,289.530518 
	C129.474030,289.127197 136.872635,288.972321 144.602066,289.040436 
	C137.527847,289.435272 130.122833,289.607086 122.396606,289.530518 
z"/>
<path fill="#FF3E4D" opacity="1.000000" stroke="none" 
	d="
M151.154846,202.792679 
	C150.753510,194.652023 150.681061,186.233627 150.957916,177.362488 
	C151.509354,176.894913 151.711502,176.880081 151.913651,176.865250 
	C151.770355,185.415146 151.627060,193.965042 151.154846,202.792679 
z"/>
<path fill="#FC6B6F" opacity="1.000000" stroke="none" 
	d="
M163.148102,163.177460 
	C166.140076,162.922928 169.145493,163.077072 172.607208,163.196808 
	C169.892365,166.330322 166.553940,165.589035 163.148102,163.177460 
z"/>
<path fill="#FC6B6F" opacity="1.000000" stroke="none" 
	d="
M148.207336,163.031799 
	C151.219864,162.849091 154.211502,163.084015 157.663696,163.337006 
	C154.836487,166.001572 151.522552,165.892487 148.207336,163.031799 
z"/>
<path fill="#FC6B6F" opacity="1.000000" stroke="none" 
	d="
M109.150162,163.167343 
	C112.135765,162.903381 115.130379,163.049332 118.575813,163.129028 
	C115.899803,166.347397 112.556343,165.477417 109.150162,163.167343 
z"/>
<path fill="#FC6B6F" opacity="1.000000" stroke="none" 
	d="
M136.915802,138.975983 
	C135.280121,139.349152 133.461441,139.445557 131.299316,139.377441 
	C132.881516,139.041702 134.807144,138.870468 136.915802,138.975983 
z"/>
<path fill="#FC6B6F" opacity="1.000000" stroke="none" 
	d="
M150.412506,287.784607 
	C150.784576,287.814453 150.869995,288.042389 151.034027,288.627014 
	C149.921692,289.231049 148.730713,289.478302 147.308594,289.497772 
	C148.093582,288.840881 149.109711,288.411804 150.412506,287.784607 
z"/>
<path fill="#FC6B6F" opacity="1.000000" stroke="none" 
	d="
M157.710724,155.997375 
	C156.959595,155.246597 156.534897,154.396088 156.100464,153.252319 
	C156.739517,153.938599 157.388336,154.918121 157.710724,155.997375 
z"/>
<path fill="#FC6B6F" opacity="1.000000" stroke="none" 
	d="
M145.173126,137.164536 
	C146.278625,137.333008 147.527313,137.833984 148.965668,138.619324 
	C147.875656,138.434799 146.595993,137.965912 145.173126,137.164536 
z"/>
<path fill="#FC6B6F" opacity="1.000000" stroke="none" 
	d="
M137.087219,135.000519 
	C138.238235,134.884140 139.573044,135.059357 141.178650,135.461288 
	C140.056641,135.556046 138.663818,135.424103 137.087219,135.000519 
z"/>
<path fill="#FC6B6F" opacity="1.000000" stroke="none" 
	d="
M122.068283,155.836578 
	C122.283722,154.981766 122.857674,154.129166 123.727905,153.172363 
	C123.491730,153.991699 122.959267,154.915237 122.068283,155.836578 
z"/>
<path fill="#FC6B6F" opacity="1.000000" stroke="none" 
	d="
M128.705856,150.597443 
	C129.107574,150.115784 129.816025,149.769928 130.812698,149.543304 
	C130.404816,150.019424 129.708694,150.376328 128.705856,150.597443 
z"/>
<path fill="#FC6B6F" opacity="1.000000" stroke="none" 
	d="
M152.085358,141.245956 
	C152.712616,141.361465 153.373611,141.818039 154.129425,142.574326 
	C153.522537,142.445053 152.820816,142.016037 152.085358,141.245956 
z"/>
<path fill="#FC6B6F" opacity="1.000000" stroke="none" 
	d="
M123.797401,136.726715 
	C124.155777,136.218399 124.831238,135.804947 125.802261,135.480743 
	C125.436714,135.987167 124.775597,136.404358 123.797401,136.726715 
z"/>
<path fill="#FC6B6F" opacity="1.000000" stroke="none" 
	d="
M152.675385,147.167816 
	C151.970566,147.031372 151.331299,146.495926 150.568268,145.666656 
	C151.209976,145.838181 151.975449,146.303513 152.675385,147.167816 
z"/>
<path fill="#FC6B6F" opacity="1.000000" stroke="none" 
	d="
M141.017014,151.529739 
	C141.636459,151.569305 142.328491,151.923431 143.129578,152.569092 
	C142.522293,152.521851 141.805939,152.183075 141.017014,151.529739 
z"/>
<path fill="#FC6B6F" opacity="1.000000" stroke="none" 
	d="
M129.122589,135.187531 
	C129.518036,134.779312 130.043854,134.584976 130.836700,134.527191 
	C130.486816,134.909622 129.869888,135.155518 129.122589,135.187531 
z"/>
<path fill="#FC6B6F" opacity="1.000000" stroke="none" 
	d="
M119.796501,160.955261 
	C119.764175,160.095200 120.034355,159.095291 120.543327,157.883560 
	C120.554413,158.719635 120.326706,159.767532 119.796501,160.955261 
z"/>
<path fill="#FC6B6F" opacity="1.000000" stroke="none" 
	d="
M147.224426,159.031860 
	C147.709641,159.416153 147.913986,159.923096 148.079880,160.709717 
	C147.675461,160.377777 147.309509,159.766144 147.224426,159.031860 
z"/>
<path fill="#FC6B6F" opacity="1.000000" stroke="none" 
	d="
M109.042038,148.883789 
	C108.978256,148.312775 109.191353,147.758545 109.668594,147.056824 
	C109.728134,147.573074 109.523521,148.236816 109.042038,148.883789 
z"/>
<path fill="#FC6B6F" opacity="1.000000" stroke="none" 
	d="
M172.673767,155.207092 
	C172.284622,154.874619 172.070435,154.279984 171.872925,153.362961 
	C172.209305,153.675369 172.529022,154.310150 172.673767,155.207092 
z"/>
<path fill="#FC6B6F" opacity="1.000000" stroke="none" 
	d="
M145.115860,155.142426 
	C145.529846,155.264954 145.933044,155.734528 146.388916,156.518173 
	C145.996078,156.384644 145.550583,155.937073 145.115860,155.142426 
z"/>
<path fill="#FC6B6F" opacity="1.000000" stroke="none" 
	d="
M119.040054,138.839661 
	C119.196907,138.444473 119.704208,138.088699 120.526863,137.687714 
	C120.358307,138.054688 119.874405,138.466873 119.040054,138.839661 
z"/>
<path fill="#FC6B6F" opacity="1.000000" stroke="none" 
	d="
M151.759445,176.662476 
	C151.711502,176.880081 151.509354,176.894913 151.003265,176.887115 
	C150.699326,176.864502 150.535065,176.486252 150.602585,176.291931 
	C150.981812,176.218307 151.293533,176.339005 151.759445,176.662476 
z"/>
<path fill="#FC6B6F" opacity="1.000000" stroke="none" 
	d="
M126.894089,139.786713 
	C127.005463,139.948120 126.615646,140.233917 126.374489,140.248138 
	C126.349792,140.050003 126.566254,139.837646 126.894089,139.786713 
z"/>
<path fill="#FC6B6F" opacity="1.000000" stroke="none" 
	d="
M145.828064,141.893265 
	C145.609756,142.030182 145.252029,141.891296 144.721375,141.513489 
	C144.928528,141.388855 145.308594,141.503159 145.828064,141.893265 
z"/>
<path fill="#FC6B6F" opacity="1.000000" stroke="none" 
	d="
M112.045883,144.713379 
	C111.927284,144.471848 112.096161,144.153091 112.511475,143.707214 
	C112.616402,143.932129 112.474884,144.284134 112.045883,144.713379 
z"/>
<path fill="#FC6B6F" opacity="1.000000" stroke="none" 
	d="
M111.042557,145.846008 
	C110.936348,145.615417 111.101685,145.298370 111.521301,144.875992 
	C111.621758,145.100296 111.467926,145.429932 111.042557,145.846008 
z"/>
<path fill="#FC6B6F" opacity="1.000000" stroke="none" 
	d="
M117.042496,145.251465 
	C117.139114,145.501358 116.932152,145.818405 116.464310,146.258636 
	C116.381927,146.027435 116.560417,145.673019 117.042496,145.251465 
z"/>
<path fill="#FC6B6F" opacity="1.000000" stroke="none" 
	d="
M162.744598,160.090637 
	C162.948273,160.153305 163.005371,160.319870 163.013458,160.746002 
	C162.842300,160.735229 162.720154,160.464890 162.744598,160.090637 
z"/>
<path fill="#FC6B6F" opacity="1.000000" stroke="none" 
	d="
M162.150116,156.941559 
	C162.473206,156.902298 162.636139,157.174561 162.625992,157.757263 
	C162.292206,157.796204 162.137894,157.524658 162.150116,156.941559 
z"/>
<path fill="#FC6B6F" opacity="1.000000" stroke="none" 
	d="
M158.241791,158.901428 
	C158.015137,158.853455 157.940979,158.696121 157.886353,158.278641 
	C158.068665,158.276321 158.231461,158.534180 158.241791,158.901428 
z"/>
<path fill="#FC6B6F" opacity="1.000000" stroke="none" 
	d="
M173.388687,160.904785 
	C173.184402,160.847015 173.115112,160.680389 173.099731,160.248474 
	C173.276962,160.254105 173.400314,160.525009 173.388687,160.904785 
z"/>
<path fill="#FA3E48" opacity="1.000000" stroke="none" 
	d="
M300.192322,201.973877 
	C299.779175,193.307983 299.701416,184.603470 299.729156,175.438782 
	C300.136139,175.163040 300.437622,175.347473 300.869629,176.205597 
	C301.332733,179.588501 301.665314,182.297714 301.997864,185.006912 
	C301.998108,185.449265 301.998352,185.891617 301.998413,187.082901 
	C301.998413,189.222229 301.998596,190.612640 301.998779,192.003036 
	C301.998810,194.371582 301.998871,196.740128 301.998840,199.552200 
	C301.508423,200.642242 301.018066,201.288757 300.192322,201.973877 
z"/>
<path fill="#FC4748" opacity="1.000000" stroke="none" 
	d="
M302.285706,184.729370 
	C301.665314,182.297714 301.332733,179.588501 301.000702,176.439957 
	C304.763550,178.215225 302.637054,181.525436 302.285706,184.729370 
z"/>
<path fill="#FA8788" opacity="1.000000" stroke="none" 
	d="
M299.653015,173.991852 
	C296.902588,174.135239 294.237213,173.880997 291.282837,173.361542 
	C293.908600,173.262283 296.823303,173.428238 299.653015,173.991852 
z"/>
<path fill="#FC4748" opacity="1.000000" stroke="none" 
	d="
M302.268433,191.772980 
	C301.998596,190.612640 301.998413,189.222229 301.998474,187.414673 
	C302.178467,188.512634 302.358246,190.027771 302.268433,191.772980 
z"/>
<path fill="#EF2423" opacity="1.000000" stroke="none" 
	d="
M251.031097,25.634136 
	C255.726791,25.250763 260.416595,25.212196 265.573975,25.235085 
	C269.692261,27.643494 273.327576,29.995815 273.708069,34.955463 
	C273.726440,35.194836 274.156799,35.581303 274.414185,35.597393 
	C280.313416,35.966152 282.783997,40.363125 285.317657,44.740242 
	C285.621613,45.265358 286.346832,45.879498 286.884766,45.887093 
	C297.373627,46.035118 299.328827,55.875496 304.894592,61.606712 
	C305.515778,62.246380 306.496490,62.536926 307.683472,62.998283 
	C308.367126,66.043472 308.677795,69.079758 308.975861,72.555626 
	C307.903748,73.835876 306.844238,74.676552 305.364410,75.850746 
	C303.555939,70.150581 299.323120,67.562706 294.135223,65.042000 
	C289.336639,62.710457 285.823761,57.774895 281.664948,54.075745 
	C273.070557,46.431290 264.394440,38.878532 255.821274,31.210537 
	C254.066559,29.641102 252.615967,27.731657 251.031097,25.634136 
z"/>
<path fill="#FA8788" opacity="1.000000" stroke="none" 
	d="
M287.916443,206.601105 
	C289.227020,205.779007 290.889191,205.077759 292.880554,204.522095 
	C291.562500,205.352448 289.915283,206.037216 287.916443,206.601105 
z"/>
<path fill="#FA8788" opacity="1.000000" stroke="none" 
	d="
M296.287354,204.453766 
	C297.012970,203.770844 297.992950,203.322983 299.282898,202.741180 
	C298.575836,203.301117 297.558777,203.994980 296.287354,204.453766 
z"/>
<path fill="#FB4341" opacity="1.000000" stroke="none" 
	d="
M303.666779,205.506805 
	C304.011139,204.963501 304.570312,204.637756 305.129486,204.312012 
	C305.256775,204.590607 305.384064,204.869202 305.511353,205.147812 
	C304.968109,205.339996 304.424835,205.532166 303.666779,205.506805 
z"/>
</svg>