<svg version="1.1" id="Layer_1" xmlns="http://www.w3.org/2000/svg" xmlns:xlink="http://www.w3.org/1999/xlink" x="0px" y="0px"
	 width="100%" viewBox="0 0 512 512" enable-background="new 0 0 512 512" xml:space="preserve">
<path fill="#FFFFFF" opacity="1.000000" stroke="none" 
	d="
M100.000000,513.000000 
	C67.016754,513.000000 34.033508,513.000000 1.025132,513.000000 
	C1.025132,342.436737 1.025132,171.873474 1.025132,1.000000 
	C84.353973,1.000000 167.708328,1.000000 251.412231,1.371179 
	C234.997955,5.326226 227.827957,17.050072 225.718521,33.000000 
	C223.755478,33.000000 222.102081,33.000000 220.448685,33.000000 
	C183.455688,33.000000 146.462631,32.971535 109.469780,33.043575 
	C105.729218,33.050865 101.964790,33.491028 98.254173,34.026478 
	C80.517380,36.585918 66.063560,53.099697 66.050529,71.706154 
	C65.956337,206.180634 65.926880,340.655304 66.110603,475.129608 
	C66.129433,488.913757 73.047005,499.714874 84.785072,506.846283 
	C89.399658,509.649811 94.901955,510.992218 100.000000,513.000000 
z"/>
<path fill="#FFFFFF" opacity="1.000000" stroke="none" 
	d="
M263.000000,0.999999 
	C346.290863,1.000000 429.581757,1.000000 512.936279,1.000000 
	C512.936279,171.666656 512.936279,342.333344 512.936279,513.000000 
	C480.904724,513.000000 448.921021,513.000000 416.599426,512.619019 
	C417.728699,512.068848 419.283783,512.157410 420.649811,511.691589 
	C439.340088,505.318909 449.744629,492.570404 449.799988,473.157135 
	C450.180603,339.713898 450.014740,206.269043 449.918304,72.824783 
	C449.915771,69.350922 448.765900,65.863892 448.037506,62.406925 
	C444.215546,44.267834 425.876343,32.673264 408.002411,32.871944 
	C370.189514,33.292263 332.368744,33.000000 294.551178,33.000000 
	C292.770233,33.000000 290.989258,33.000000 288.998169,33.000000 
	C289.616913,22.828390 285.848236,14.817958 278.350647,9.123183 
	C273.801575,5.667917 268.154053,3.658793 263.000000,0.999999 
z"/>
<path fill="#000000" opacity="1.000000" stroke="none" 
	d="
M262.541931,0.999999 
	C268.154053,3.658793 273.801575,5.667917 278.350647,9.123183 
	C285.848236,14.817958 289.616913,22.828390 288.998169,33.000000 
	C290.989258,33.000000 292.770233,33.000000 294.551178,33.000000 
	C332.368744,33.000000 370.189514,33.292263 408.002411,32.871944 
	C425.876343,32.673264 444.215546,44.267834 448.037506,62.406925 
	C448.765900,65.863892 449.915771,69.350922 449.918304,72.824783 
	C450.014740,206.269043 450.180603,339.713898 449.799988,473.157135 
	C449.744629,492.570404 439.340088,505.318909 420.649811,511.691589 
	C419.283783,512.157410 417.728699,512.068848 416.130737,512.619019 
	C310.979095,513.000000 205.958206,513.000000 100.468658,513.000000 
	C94.901955,510.992218 89.399658,509.649811 84.785072,506.846283 
	C73.047005,499.714874 66.129433,488.913757 66.110603,475.129608 
	C65.926880,340.655304 65.956337,206.180634 66.050529,71.706154 
	C66.063560,53.099697 80.517380,36.585918 98.254173,34.026478 
	C101.964790,33.491028 105.729218,33.050865 109.469780,33.043575 
	C146.462631,32.971535 183.455688,33.000000 220.448685,33.000000 
	C222.102081,33.000000 223.755478,33.000000 225.718521,33.000000 
	C227.827957,17.050072 234.997955,5.326226 251.880890,1.371179 
	C255.361282,1.000000 258.722565,1.000000 262.541931,0.999999 
M102.938141,497.998779 
	C204.754761,497.999207 306.571564,497.904510 408.387787,498.103394 
	C423.521057,498.132965 435.044189,487.462433 435.036011,471.197021 
	C434.971252,342.551331 435.000000,213.905609 435.000000,85.259888 
	C435.000000,81.093903 435.220978,76.914009 434.959991,72.764442 
	C434.057587,58.417442 425.025604,48.275951 409.835236,48.085125 
	C384.843231,47.771168 359.844452,48.000000 334.848511,48.000000 
	C333.265808,48.000000 331.683075,48.000000 330.516144,48.000000 
	C329.984344,57.436794 329.225891,66.164009 329.069672,74.901993 
	C328.887115,85.114723 318.622070,96.064278 306.987946,96.032043 
	C273.993561,95.940613 240.998764,96.009300 208.004196,95.968315 
	C206.585464,95.966553 205.144547,95.590614 203.752487,95.237297 
	C191.999344,92.254219 186.207886,82.489929 186.023590,71.163971 
	C185.899750,63.553181 186.000000,55.938740 186.000000,48.465336 
	C185.249435,48.219891 184.952347,48.037853 184.655121,48.037617 
	C157.826385,48.016109 130.989975,47.626514 104.172195,48.164688 
	C91.182259,48.425369 81.097725,58.416584 81.083405,72.214775 
	C80.944550,206.026169 80.984550,339.837769 81.090797,473.649261 
	C81.093399,476.930969 82.006676,480.390991 83.255493,483.458313 
	C86.659988,491.820496 93.638756,495.894287 102.938141,497.998779 
M207.343735,80.847839 
	C223.159241,80.898560 238.974701,80.970291 254.790253,80.994270 
	C271.608826,81.019760 288.427582,80.970215 305.246063,81.020950 
	C309.446106,81.033615 313.475708,79.502182 313.783020,75.404678 
	C314.460693,66.369690 313.993591,57.248837 313.993591,48.278278 
	C275.999847,48.278278 238.617462,48.278278 201.000000,48.278278 
	C201.000000,56.023663 201.102188,63.495041 200.961639,70.961853 
	C200.877457,75.434029 202.704712,78.472702 207.343735,80.847839 
M244.771240,32.999996 
	C254.495697,32.999996 264.220154,32.999996 274.467133,32.999996 
	C273.920654,30.352648 273.815277,28.363123 273.098419,26.625925 
	C270.004730,19.128496 263.890594,15.295738 256.261078,16.021502 
	C250.246384,16.593651 242.993622,21.649506 241.172089,30.428934 
	C240.598495,33.193497 242.065704,33.068363 244.771240,32.999996 
z"/>
<path fill="#FFFFFF" opacity="1.000000" stroke="none" 
	d="
M102.485474,497.989868 
	C93.638756,495.894287 86.659988,491.820496 83.255493,483.458313 
	C82.006676,480.390991 81.093399,476.930969 81.090797,473.649261 
	C80.984550,339.837769 80.944550,206.026169 81.083405,72.214775 
	C81.097725,58.416584 91.182259,48.425369 104.172195,48.164688 
	C130.989975,47.626514 157.826385,48.016109 184.655121,48.037617 
	C184.952347,48.037853 185.249435,48.219891 186.000000,48.465336 
	C186.000000,55.938740 185.899750,63.553181 186.023590,71.163971 
	C186.207886,82.489929 191.999344,92.254219 203.752487,95.237297 
	C205.144547,95.590614 206.585464,95.966553 208.004196,95.968315 
	C240.998764,96.009300 273.993561,95.940613 306.987946,96.032043 
	C318.622070,96.064278 328.887115,85.114723 329.069672,74.901993 
	C329.225891,66.164009 329.984344,57.436794 330.516144,48.000000 
	C331.683075,48.000000 333.265808,48.000000 334.848511,48.000000 
	C359.844452,48.000000 384.843231,47.771168 409.835236,48.085125 
	C425.025604,48.275951 434.057587,58.417442 434.959991,72.764442 
	C435.220978,76.914009 435.000000,81.093903 435.000000,85.259888 
	C435.000000,213.905609 434.971252,342.551331 435.036011,471.197021 
	C435.044189,487.462433 423.521057,498.132965 408.387787,498.103394 
	C306.571564,497.904510 204.754761,497.999207 102.485474,497.989868 
M418.000000,310.500000 
	C418.000000,232.688263 418.000000,154.876526 417.999969,77.064781 
	C417.999969,75.898438 418.123138,74.716568 417.978668,73.568382 
	C417.299377,68.167862 414.879883,65.172150 409.381134,65.096176 
	C391.056305,64.843010 372.725555,64.946686 354.397736,65.041573 
	C350.268402,65.062950 347.127197,68.253479 347.000031,71.949753 
	C346.801270,77.727837 348.945496,79.980164 354.836609,79.990463 
	C370.778961,80.018311 386.721436,80.000000 402.804840,80.000000 
	C402.804840,203.501038 402.804840,326.548950 402.804840,449.660339 
	C306.097778,449.660339 209.586258,449.660339 112.999878,449.660339 
	C112.999878,446.823456 113.068909,444.323517 112.984795,441.828735 
	C112.832809,437.320953 109.812820,433.997894 105.978378,434.000092 
	C101.254440,434.002808 98.125954,437.066162 98.019623,441.982788 
	C97.925972,446.312927 97.997688,450.646667 98.000519,454.978821 
	C98.005424,462.494476 100.483459,464.998810 107.939133,464.998932 
	C207.578476,465.000549 307.217834,465.000366 406.857178,464.999390 
	C414.889008,464.999298 417.998749,461.919891 417.999054,453.960938 
	C418.000946,406.473969 418.000000,358.986969 418.000000,310.500000 
M99.007240,413.092987 
	C101.038300,416.516846 104.278282,417.697083 107.785088,416.567932 
	C111.823135,415.267761 113.058159,411.910156 113.055374,407.661865 
	C112.985008,300.388702 113.000000,193.115494 113.000000,85.842300 
	C113.000000,83.926399 113.000000,82.010506 113.000000,80.000000 
	C129.338043,80.000000 144.989456,80.035728 160.640182,79.948410 
	C162.329315,79.938988 164.254456,79.605598 165.652725,78.744621 
	C168.796402,76.808914 170.040527,73.720612 168.645813,70.209877 
	C167.279739,66.771217 164.643692,64.945374 160.678757,64.963829 
	C142.855789,65.046837 125.032234,64.990623 107.208908,65.004982 
	C100.781761,65.010155 98.004646,67.795944 98.004295,74.247398 
	C97.998329,185.351776 97.996704,296.456177 98.033279,407.560547 
	C98.033798,409.129852 98.534523,410.699005 99.007240,413.092987 
M316.500000,232.000000 
	C331.823273,232.000000 347.146576,232.025314 362.469757,231.986298 
	C367.862946,231.972565 371.255341,226.842087 368.930481,222.006195 
	C366.892334,217.766724 362.918060,216.987656 358.625336,216.988693 
	C291.502716,217.004837 224.380081,216.998779 157.257446,217.008942 
	C155.932999,217.009155 154.554840,216.931747 153.293884,217.252655 
	C148.876205,218.376862 145.492996,222.439270 146.013535,225.776352 
	C146.597382,229.519394 150.216614,231.999542 155.105225,231.999603 
	C208.570145,232.000244 262.035065,232.000000 316.500000,232.000000 
M206.000000,175.469223 
	C205.999985,162.980148 205.990662,150.491058 206.004761,138.001999 
	C206.010025,133.336639 203.453598,130.285202 199.290070,129.211044 
	C195.751480,128.298111 193.255219,130.506271 191.612976,133.789642 
	C188.164276,140.684814 184.532379,147.488449 180.968719,154.326004 
	C178.721237,158.638168 176.461075,162.943726 173.911362,167.816467 
	C168.339508,156.671738 163.220871,146.303848 157.954117,136.011765 
	C156.936035,134.022278 155.684479,131.779099 153.906616,130.661789 
	C152.291214,129.646576 149.301575,129.121811 147.837936,129.969543 
	C145.779739,131.161667 143.255295,133.791794 143.208450,135.858597 
	C142.835037,152.335754 142.964523,168.825241 143.024628,185.310623 
	C143.040253,189.594757 145.384537,191.593948 149.682724,192.079300 
	C154.093506,192.577377 157.452942,190.164352 157.948380,182.953964 
	C158.232971,178.812256 157.999954,174.634979 157.999954,169.107605 
	C161.363678,175.740433 164.246658,180.917374 166.635452,186.313095 
	C168.245590,189.950012 170.244797,192.053040 174.544266,192.099640 
	C178.965164,192.147537 180.400055,189.163284 181.971497,186.121384 
	C184.712189,180.816071 187.351791,175.458511 190.033768,170.122849 
	C191.000015,175.114319 190.968674,179.723999 191.008148,184.333054 
	C191.054642,189.759949 193.104691,191.910538 198.212738,191.999985 
	C202.638519,192.077484 205.765366,189.102386 205.977722,184.446701 
	C206.098999,181.787903 205.999893,179.119019 206.000000,175.469223 
M235.500000,338.000000 
	C208.186615,338.000000 180.873230,337.983246 153.559875,338.013611 
	C147.849899,338.019958 144.547028,343.414642 147.115707,348.424561 
	C149.073059,352.242218 152.503281,353.022369 156.435272,353.020050 
	C207.731064,352.989807 259.026886,353.000000 310.322693,352.999969 
	C311.155426,352.999969 311.993225,353.059723 312.820038,352.989594 
	C318.398132,352.516418 321.203186,349.703522 320.999939,344.825531 
	C320.789917,339.785431 318.574493,338.003906 312.444458,338.002472 
	C287.129639,337.996613 261.814819,338.000000 235.500000,338.000000 
M229.500000,258.000000 
	C204.194702,258.000000 178.889114,258.063965 153.584412,257.941437 
	C148.987000,257.919189 146.403595,260.808319 146.352982,264.245850 
	C146.315338,266.801575 148.915863,270.032867 151.233154,271.781372 
	C153.028168,273.135803 156.202789,272.953796 158.764709,272.956757 
	C208.875793,273.014923 258.986969,273.010345 309.098083,272.960052 
	C310.994873,272.958160 312.918610,272.482666 314.782471,272.032104 
	C320.439392,270.664612 321.787354,268.813538 320.962524,263.064209 
	C320.292969,258.397186 316.884644,257.939056 312.908539,257.952209 
	C285.439270,258.042969 257.969574,258.000000 229.500000,258.000000 
M271.000000,176.466339 
	C271.125061,180.260162 270.396423,184.358551 271.611206,187.763626 
	C272.869141,191.289703 276.951477,193.530853 280.564575,191.739319 
	C282.983887,190.539703 285.497986,187.095459 285.756104,184.440399 
	C286.463043,177.169556 285.999664,169.784927 285.999664,161.340210 
	C292.151154,170.737686 297.573334,179.068481 303.049011,187.364014 
	C305.418213,190.953247 308.782410,193.437057 313.035278,191.803711 
	C316.813171,190.352783 318.114990,186.797943 318.066132,182.555511 
	C317.895355,167.728882 318.011230,152.899078 317.994202,138.070496 
	C317.987854,132.535309 315.147919,129.098770 310.590332,129.008392 
	C306.113434,128.919632 303.028992,132.496567 303.006866,137.889755 
	C302.978607,144.776611 303.000000,151.663666 303.000000,159.828690 
	C296.585907,150.372757 290.754242,142.135696 285.346863,133.628937 
	C283.137756,130.153671 280.716431,128.796982 276.693878,129.669601 
	C272.017822,130.684021 270.973206,133.850586 270.986023,137.989426 
	C271.024719,150.485306 271.000000,162.981400 271.000000,176.466339 
M246.466476,192.000000 
	C248.466064,192.000000 250.478012,192.138672 252.461792,191.961609 
	C254.511139,191.778671 257.332123,191.984909 258.385712,190.775406 
	C260.101410,188.805756 261.821198,185.631561 261.439758,183.310791 
	C260.776062,179.272522 257.414856,177.006653 253.025620,177.002182 
	C245.420090,176.994431 237.814545,177.000046 230.276367,177.000046 
	C230.276367,173.706955 230.276367,170.967682 230.276367,167.999954 
	C234.358887,167.999954 238.167816,167.964081 241.975784,168.009750 
	C246.026413,168.058350 248.458771,166.139282 248.969696,162.132050 
	C249.476044,158.160858 248.593506,154.721069 243.962234,154.004196 
	C239.351166,153.290405 234.681335,152.956085 230.184875,152.471313 
	C230.184875,149.646530 230.184875,147.024155 230.184875,144.000000 
	C238.316895,144.000000 246.272858,144.087860 254.223816,143.927658 
	C255.861725,143.894653 257.801147,143.331070 259.043335,142.323654 
	C261.775879,140.107605 263.533234,136.833221 260.865234,133.862381 
	C258.867401,131.637787 255.640915,129.377182 252.842316,129.217209 
	C243.043045,128.657028 233.191879,128.956924 223.360947,129.017014 
	C217.910461,129.050339 215.025787,132.027206 215.012772,137.601288 
	C214.976212,153.264618 214.969711,168.928207 215.016830,184.591492 
	C215.032791,189.902283 217.129089,191.947891 222.482407,191.986069 
	C230.147095,192.040726 237.812454,191.999985 246.466476,192.000000 
M359.000000,153.499603 
	C359.000000,158.327988 359.019318,163.156448 358.995087,167.984711 
	C358.965027,173.969208 356.134460,176.977661 350.564758,177.000000 
	C344.932709,177.022583 342.025360,174.044357 342.008148,168.114197 
	C341.978638,157.958023 342.024902,147.801605 341.989563,137.645462 
	C341.971771,132.539734 339.075012,129.184311 334.674194,129.011612 
	C330.217041,128.836700 327.024811,132.446823 327.008362,137.796341 
	C326.978729,147.453033 327.311798,157.122360 326.925537,166.763657 
	C326.372009,180.580643 337.285278,193.357819 352.451752,192.216049 
	C363.014679,191.420837 373.339722,182.010117 373.879028,170.886337 
	C374.426666,159.591141 374.053802,148.248337 373.973816,136.927155 
	C373.941254,132.320877 370.612244,128.965927 366.455383,129.006683 
	C362.275635,129.047653 359.098053,132.380066 359.019928,137.016632 
	C358.932983,142.176544 359.000000,147.339066 359.000000,153.499603 
M168.503052,393.000000 
	C200.473221,393.000000 232.443390,393.012878 264.413544,392.987549 
	C269.863342,392.983246 273.074097,390.009125 272.999969,385.248596 
	C272.917694,379.960754 270.763062,378.007019 264.870209,378.005341 
	C227.904724,377.994812 190.939209,377.981415 153.973907,378.061096 
	C152.322861,378.064667 149.946518,378.453430 149.180374,379.550964 
	C147.738220,381.616974 146.177567,384.511200 146.558914,386.736786 
	C147.216934,390.577179 150.330444,392.904846 154.517609,392.981934 
	C158.845428,393.061646 163.175873,392.999878 168.503052,393.000000 
M165.518326,313.000000 
	C197.670059,313.000000 229.821808,313.005432 261.973541,312.984192 
	C263.610718,312.983124 265.316223,313.005280 266.872223,312.582947 
	C271.859406,311.229401 273.744049,308.438599 272.977875,303.674011 
	C272.228333,299.012726 269.031799,297.953430 264.785828,297.961212 
	C227.969711,298.028534 191.153076,298.077850 154.337677,297.903961 
	C149.600433,297.881622 146.861084,300.251587 146.230865,304.029663 
	C145.569199,307.996246 147.917572,311.380402 152.343643,312.032043 
	C156.365402,312.624115 160.463470,312.697784 165.518326,313.000000 
M363.894989,298.000519 
	C357.927765,298.000366 351.960480,297.989868 345.993286,298.004089 
	C342.614441,298.012177 339.667389,299.154572 339.097351,302.750885 
	C338.465454,306.737427 338.566345,311.273224 343.854187,311.892700 
	C350.130402,312.627991 356.609467,313.155914 362.805939,312.323914 
	C365.410004,311.974304 368.770203,308.205231 369.425568,305.432556 
	C369.897461,303.436249 366.461639,300.516266 363.894989,298.000519 
M366.342133,391.107422 
	C369.140076,388.737152 370.545959,385.959625 368.991852,382.273132 
	C367.477814,378.681732 364.514862,377.924011 361.005890,377.980499 
	C356.179169,378.058289 351.347595,378.099304 346.523132,377.969055 
	C342.557434,377.862061 339.891266,379.420898 339.040527,383.362976 
	C338.141754,387.527740 340.323608,392.329987 344.252563,392.542816 
	C351.401581,392.930023 358.618439,392.065063 366.342133,391.107422 
M352.531616,258.000000 
	C350.045044,258.000000 347.557648,258.039703 345.072052,257.990479 
	C341.562714,257.920990 339.458069,259.704865 339.056458,263.048950 
	C338.590668,266.927826 338.744537,271.356659 343.665924,271.838165 
	C350.196259,272.476959 356.836060,272.050446 363.427948,271.988739 
	C368.142456,271.944580 369.321777,268.100189 369.788727,264.737091 
	C370.297546,261.072266 366.238068,258.025055 361.965942,258.002808 
	C359.147888,257.988129 356.329681,258.000000 352.531616,258.000000 
M362.795654,352.990692 
	C363.363342,352.711487 363.930176,352.430481 364.498840,352.153320 
	C367.954895,350.468964 370.104553,347.951141 369.375793,343.871246 
	C368.511810,339.033875 365.091034,337.875122 360.722595,337.973907 
	C355.735382,338.086670 350.743561,338.018829 345.753937,337.994202 
	C341.905487,337.975220 339.612701,339.957214 339.054108,343.623627 
	C338.463593,347.499542 339.216278,351.303467 343.778900,351.897583 
	C349.771851,352.678009 355.867584,352.668945 362.795654,352.990692 
z"/>
<path fill="#FFFFFF" opacity="1.000000" stroke="none" 
	d="
M207.056229,80.538025 
	C202.704712,78.472702 200.877457,75.434029 200.961639,70.961853 
	C201.102188,63.495041 201.000000,56.023663 201.000000,48.278278 
	C238.617462,48.278278 275.999847,48.278278 313.993591,48.278278 
	C313.993591,57.248837 314.460693,66.369690 313.783020,75.404678 
	C313.475708,79.502182 309.446106,81.033615 305.246063,81.020950 
	C288.427582,80.970215 271.608826,81.019760 254.790253,80.994270 
	C238.974701,80.970291 223.159241,80.898560 207.056229,80.538025 
z"/>
<path fill="#FFFFFF" opacity="1.000000" stroke="none" 
	d="
M244.305328,32.999950 
	C242.065704,33.068363 240.598495,33.193497 241.172089,30.428934 
	C242.993622,21.649506 250.246384,16.593651 256.261078,16.021502 
	C263.890594,15.295738 270.004730,19.128496 273.098419,26.625925 
	C273.815277,28.363123 273.920654,30.352648 274.467133,32.999996 
	C264.220154,32.999996 254.495697,32.999996 244.305328,32.999950 
z"/>
<path fill="#000000" opacity="1.000000" stroke="none" 
	d="
M418.000000,311.000000 
	C418.000000,358.986969 418.000946,406.473969 417.999054,453.960938 
	C417.998749,461.919891 414.889008,464.999298 406.857178,464.999390 
	C307.217834,465.000366 207.578476,465.000549 107.939133,464.998932 
	C100.483459,464.998810 98.005424,462.494476 98.000519,454.978821 
	C97.997688,450.646667 97.925972,446.312927 98.019623,441.982788 
	C98.125954,437.066162 101.254440,434.002808 105.978378,434.000092 
	C109.812820,433.997894 112.832809,437.320953 112.984795,441.828735 
	C113.068909,444.323517 112.999878,446.823456 112.999878,449.660339 
	C209.586258,449.660339 306.097778,449.660339 402.804840,449.660339 
	C402.804840,326.548950 402.804840,203.501038 402.804840,80.000000 
	C386.721436,80.000000 370.778961,80.018311 354.836609,79.990463 
	C348.945496,79.980164 346.801270,77.727837 347.000031,71.949753 
	C347.127197,68.253479 350.268402,65.062950 354.397736,65.041573 
	C372.725555,64.946686 391.056305,64.843010 409.381134,65.096176 
	C414.879883,65.172150 417.299377,68.167862 417.978668,73.568382 
	C418.123138,74.716568 417.999969,75.898438 417.999969,77.064781 
	C418.000000,154.876526 418.000000,232.688263 418.000000,311.000000 
z"/>
<path fill="#000000" opacity="1.000000" stroke="none" 
	d="
M98.904510,412.680603 
	C98.534523,410.699005 98.033798,409.129852 98.033279,407.560547 
	C97.996704,296.456177 97.998329,185.351776 98.004295,74.247398 
	C98.004646,67.795944 100.781761,65.010155 107.208908,65.004982 
	C125.032234,64.990623 142.855789,65.046837 160.678757,64.963829 
	C164.643692,64.945374 167.279739,66.771217 168.645813,70.209877 
	C170.040527,73.720612 168.796402,76.808914 165.652725,78.744621 
	C164.254456,79.605598 162.329315,79.938988 160.640182,79.948410 
	C144.989456,80.035728 129.338043,80.000000 113.000000,80.000000 
	C113.000000,82.010506 113.000000,83.926399 113.000000,85.842300 
	C113.000000,193.115494 112.985008,300.388702 113.055374,407.661865 
	C113.058159,411.910156 111.823135,415.267761 107.785088,416.567932 
	C104.278282,417.697083 101.038300,416.516846 98.904510,412.680603 
z"/>
<path fill="#000000" opacity="1.000000" stroke="none" 
	d="
M316.000000,232.000000 
	C262.035065,232.000000 208.570145,232.000244 155.105225,231.999603 
	C150.216614,231.999542 146.597382,229.519394 146.013535,225.776352 
	C145.492996,222.439270 148.876205,218.376862 153.293884,217.252655 
	C154.554840,216.931747 155.932999,217.009155 157.257446,217.008942 
	C224.380081,216.998779 291.502716,217.004837 358.625336,216.988693 
	C362.918060,216.987656 366.892334,217.766724 368.930481,222.006195 
	C371.255341,226.842087 367.862946,231.972565 362.469757,231.986298 
	C347.146576,232.025314 331.823273,232.000000 316.000000,232.000000 
z"/>
<path fill="#000000" opacity="1.000000" stroke="none" 
	d="
M206.000000,175.961945 
	C205.999893,179.119019 206.098999,181.787903 205.977722,184.446701 
	C205.765366,189.102386 202.638519,192.077484 198.212738,191.999985 
	C193.104691,191.910538 191.054642,189.759949 191.008148,184.333054 
	C190.968674,179.723999 191.000015,175.114319 190.033768,170.122849 
	C187.351791,175.458511 184.712189,180.816071 181.971497,186.121384 
	C180.400055,189.163284 178.965164,192.147537 174.544266,192.099640 
	C170.244797,192.053040 168.245590,189.950012 166.635452,186.313095 
	C164.246658,180.917374 161.363678,175.740433 157.999954,169.107605 
	C157.999954,174.634979 158.232971,178.812256 157.948380,182.953964 
	C157.452942,190.164352 154.093506,192.577377 149.682724,192.079300 
	C145.384537,191.593948 143.040253,189.594757 143.024628,185.310623 
	C142.964523,168.825241 142.835037,152.335754 143.208450,135.858597 
	C143.255295,133.791794 145.779739,131.161667 147.837936,129.969543 
	C149.301575,129.121811 152.291214,129.646576 153.906616,130.661789 
	C155.684479,131.779099 156.936035,134.022278 157.954117,136.011765 
	C163.220871,146.303848 168.339508,156.671738 173.911362,167.816467 
	C176.461075,162.943726 178.721237,158.638168 180.968719,154.326004 
	C184.532379,147.488449 188.164276,140.684814 191.612976,133.789642 
	C193.255219,130.506271 195.751480,128.298111 199.290070,129.211044 
	C203.453598,130.285202 206.010025,133.336639 206.004761,138.001999 
	C205.990662,150.491058 205.999985,162.980148 206.000000,175.961945 
z"/>
<path fill="#000000" opacity="1.000000" stroke="none" 
	d="
M236.000000,338.000000 
	C261.814819,338.000000 287.129639,337.996613 312.444458,338.002472 
	C318.574493,338.003906 320.789917,339.785431 320.999939,344.825531 
	C321.203186,349.703522 318.398132,352.516418 312.820038,352.989594 
	C311.993225,353.059723 311.155426,352.999969 310.322693,352.999969 
	C259.026886,353.000000 207.731064,352.989807 156.435272,353.020050 
	C152.503281,353.022369 149.073059,352.242218 147.115707,348.424561 
	C144.547028,343.414642 147.849899,338.019958 153.559875,338.013611 
	C180.873230,337.983246 208.186615,338.000000 236.000000,338.000000 
z"/>
<path fill="#000000" opacity="1.000000" stroke="none" 
	d="
M230.000000,258.000000 
	C257.969574,258.000000 285.439270,258.042969 312.908539,257.952209 
	C316.884644,257.939056 320.292969,258.397186 320.962524,263.064209 
	C321.787354,268.813538 320.439392,270.664612 314.782471,272.032104 
	C312.918610,272.482666 310.994873,272.958160 309.098083,272.960052 
	C258.986969,273.010345 208.875793,273.014923 158.764709,272.956757 
	C156.202789,272.953796 153.028168,273.135803 151.233154,271.781372 
	C148.915863,270.032867 146.315338,266.801575 146.352982,264.245850 
	C146.403595,260.808319 148.987000,257.919189 153.584412,257.941437 
	C178.889114,258.063965 204.194702,258.000000 230.000000,258.000000 
z"/>
<path fill="#000000" opacity="1.000000" stroke="none" 
	d="
M271.000000,175.971863 
	C271.000000,162.981400 271.024719,150.485306 270.986023,137.989426 
	C270.973206,133.850586 272.017822,130.684021 276.693878,129.669601 
	C280.716431,128.796982 283.137756,130.153671 285.346863,133.628937 
	C290.754242,142.135696 296.585907,150.372757 303.000000,159.828690 
	C303.000000,151.663666 302.978607,144.776611 303.006866,137.889755 
	C303.028992,132.496567 306.113434,128.919632 310.590332,129.008392 
	C315.147919,129.098770 317.987854,132.535309 317.994202,138.070496 
	C318.011230,152.899078 317.895355,167.728882 318.066132,182.555511 
	C318.114990,186.797943 316.813171,190.352783 313.035278,191.803711 
	C308.782410,193.437057 305.418213,190.953247 303.049011,187.364014 
	C297.573334,179.068481 292.151154,170.737686 285.999664,161.340210 
	C285.999664,169.784927 286.463043,177.169556 285.756104,184.440399 
	C285.497986,187.095459 282.983887,190.539703 280.564575,191.739319 
	C276.951477,193.530853 272.869141,191.289703 271.611206,187.763626 
	C270.396423,184.358551 271.125061,180.260162 271.000000,175.971863 
z"/>
<path fill="#000000" opacity="1.000000" stroke="none" 
	d="
M245.972015,192.000000 
	C237.812454,191.999985 230.147095,192.040726 222.482407,191.986069 
	C217.129089,191.947891 215.032791,189.902283 215.016830,184.591492 
	C214.969711,168.928207 214.976212,153.264618 215.012772,137.601288 
	C215.025787,132.027206 217.910461,129.050339 223.360947,129.017014 
	C233.191879,128.956924 243.043045,128.657028 252.842316,129.217209 
	C255.640915,129.377182 258.867401,131.637787 260.865234,133.862381 
	C263.533234,136.833221 261.775879,140.107605 259.043335,142.323654 
	C257.801147,143.331070 255.861725,143.894653 254.223816,143.927658 
	C246.272858,144.087860 238.316895,144.000000 230.184875,144.000000 
	C230.184875,147.024155 230.184875,149.646530 230.184875,152.471313 
	C234.681335,152.956085 239.351166,153.290405 243.962234,154.004196 
	C248.593506,154.721069 249.476044,158.160858 248.969696,162.132050 
	C248.458771,166.139282 246.026413,168.058350 241.975784,168.009750 
	C238.167816,167.964081 234.358887,167.999954 230.276367,167.999954 
	C230.276367,170.967682 230.276367,173.706955 230.276367,177.000046 
	C237.814545,177.000046 245.420090,176.994431 253.025620,177.002182 
	C257.414856,177.006653 260.776062,179.272522 261.439758,183.310791 
	C261.821198,185.631561 260.101410,188.805756 258.385712,190.775406 
	C257.332123,191.984909 254.511139,191.778671 252.461792,191.961609 
	C250.478012,192.138672 248.466064,192.000000 245.972015,192.000000 
z"/>
<path fill="#000000" opacity="1.000000" stroke="none" 
	d="
M359.000000,153.000031 
	C359.000000,147.339066 358.932983,142.176544 359.019928,137.016632 
	C359.098053,132.380066 362.275635,129.047653 366.455383,129.006683 
	C370.612244,128.965927 373.941254,132.320877 373.973816,136.927155 
	C374.053802,148.248337 374.426666,159.591141 373.879028,170.886337 
	C373.339722,182.010117 363.014679,191.420837 352.451752,192.216049 
	C337.285278,193.357819 326.372009,180.580643 326.925537,166.763657 
	C327.311798,157.122360 326.978729,147.453033 327.008362,137.796341 
	C327.024811,132.446823 330.217041,128.836700 334.674194,129.011612 
	C339.075012,129.184311 341.971771,132.539734 341.989563,137.645462 
	C342.024902,147.801605 341.978638,157.958023 342.008148,168.114197 
	C342.025360,174.044357 344.932709,177.022583 350.564758,177.000000 
	C356.134460,176.977661 358.965027,173.969208 358.995087,167.984711 
	C359.019318,163.156448 359.000000,158.327988 359.000000,153.000031 
z"/>
<path fill="#000000" opacity="1.000000" stroke="none" 
	d="
M168.004105,393.000000 
	C163.175873,392.999878 158.845428,393.061646 154.517609,392.981934 
	C150.330444,392.904846 147.216934,390.577179 146.558914,386.736786 
	C146.177567,384.511200 147.738220,381.616974 149.180374,379.550964 
	C149.946518,378.453430 152.322861,378.064667 153.973907,378.061096 
	C190.939209,377.981415 227.904724,377.994812 264.870209,378.005341 
	C270.763062,378.007019 272.917694,379.960754 272.999969,385.248596 
	C273.074097,390.009125 269.863342,392.983246 264.413544,392.987549 
	C232.443390,393.012878 200.473221,393.000000 168.004105,393.000000 
z"/>
<path fill="#000000" opacity="1.000000" stroke="none" 
	d="
M165.023117,313.000000 
	C160.463470,312.697784 156.365402,312.624115 152.343643,312.032043 
	C147.917572,311.380402 145.569199,307.996246 146.230865,304.029663 
	C146.861084,300.251587 149.600433,297.881622 154.337677,297.903961 
	C191.153076,298.077850 227.969711,298.028534 264.785828,297.961212 
	C269.031799,297.953430 272.228333,299.012726 272.977875,303.674011 
	C273.744049,308.438599 271.859406,311.229401 266.872223,312.582947 
	C265.316223,313.005280 263.610718,312.983124 261.973541,312.984192 
	C229.821808,313.005432 197.670059,313.000000 165.023117,313.000000 
z"/>
<path fill="#000000" opacity="1.000000" stroke="none" 
	d="
M364.331909,298.004395 
	C366.461639,300.516266 369.897461,303.436249 369.425568,305.432556 
	C368.770203,308.205231 365.410004,311.974304 362.805939,312.323914 
	C356.609467,313.155914 350.130402,312.627991 343.854187,311.892700 
	C338.566345,311.273224 338.465454,306.737427 339.097351,302.750885 
	C339.667389,299.154572 342.614441,298.012177 345.993286,298.004089 
	C351.960480,297.989868 357.927765,298.000366 364.331909,298.004395 
z"/>
<path fill="#000000" opacity="1.000000" stroke="none" 
	d="
M366.074554,391.415009 
	C358.618439,392.065063 351.401581,392.930023 344.252563,392.542816 
	C340.323608,392.329987 338.141754,387.527740 339.040527,383.362976 
	C339.891266,379.420898 342.557434,377.862061 346.523132,377.969055 
	C351.347595,378.099304 356.179169,378.058289 361.005890,377.980499 
	C364.514862,377.924011 367.477814,378.681732 368.991852,382.273132 
	C370.545959,385.959625 369.140076,388.737152 366.074554,391.415009 
z"/>
<path fill="#000000" opacity="1.000000" stroke="none" 
	d="
M353.021606,258.000000 
	C356.329681,258.000000 359.147888,257.988129 361.965942,258.002808 
	C366.238068,258.025055 370.297546,261.072266 369.788727,264.737091 
	C369.321777,268.100189 368.142456,271.944580 363.427948,271.988739 
	C356.836060,272.050446 350.196259,272.476959 343.665924,271.838165 
	C338.744537,271.356659 338.590668,266.927826 339.056458,263.048950 
	C339.458069,259.704865 341.562714,257.920990 345.072052,257.990479 
	C347.557648,258.039703 350.045044,258.000000 353.021606,258.000000 
z"/>
<path fill="#000000" opacity="1.000000" stroke="none" 
	d="
M362.357391,352.995056 
	C355.867584,352.668945 349.771851,352.678009 343.778900,351.897583 
	C339.216278,351.303467 338.463593,347.499542 339.054108,343.623627 
	C339.612701,339.957214 341.905487,337.975220 345.753937,337.994202 
	C350.743561,338.018829 355.735382,338.086670 360.722595,337.973907 
	C365.091034,337.875122 368.511810,339.033875 369.375793,343.871246 
	C370.104553,347.951141 367.954895,350.468964 364.498840,352.153320 
	C363.930176,352.430481 363.363342,352.711487 362.357391,352.995056 
z"/>
</svg>